<svg xmlns="http://www.w3.org/2000/svg" viewBox="0 0 132.4 122.01"><defs><style>.a{fill:#fff;}</style></defs><title>Crittall Arnold</title><path class="a" d="M218.47,343.72c-1.16-.05-2.32,0-3.48,0h0C216.15,343.71,217.31,343.67,218.47,343.72Z" transform="translate(-137.88 -232.8)"/><path class="a" d="M166.48,307.45c6.82.49,13.69.12,21.54.12-1.7-1.42-2.61-2.11-3.43-2.89-7.39-7-10.25-15.57-8.06-25.4,2.24-10,8.55-16.89,18.59-19.59,9.56-2.58,18.14-.23,25.31,6.67,2.75,2.65,2.88,5.94.66,8.47s-5.27,2.69-8.42.27c-.92-.71-1.72-1.6-2.69-2.21-5.31-3.32-10.69-3.38-16,0a14.09,14.09,0,0,0-6.09,15.24c1.25,5.9,4.94,9.64,10.85,11.08,5.35,1.3,9.72-.45,13.71-4,3.09-2.77,6-2.68,8.39-.18s2.32,5.84-.59,8.84c-1.11,1.14-2.35,2.15-3.47,3.17.27.44.34.67.42.67,5.66,0,11.35-.3,17,.17,7.5.62,12.09-5,7.47-12.61-9.89-16.36-19.13-33.13-28.65-49.72-1.73-3-3.38-6.07-5.3-9-3.42-5.16-9-5-12.17.43-3.57,6.17-6.95,12.45-10.48,18.64-7.82,13.74-15.73,27.41-23.48,41.18C158.61,302.09,160.75,307.05,166.48,307.45Z" transform="translate(-137.88 -232.8)"/><path class="a" d="M268.92,320.39c-14.68-8.19-114.1-8.17-129.71-.06A580,580,0,0,1,268.92,320.39Z" transform="translate(-137.88 -232.8)"/><path class="a" d="M223.86,327.14c-1.83,0-3.67-.08-5.49.05a8.54,8.54,0,0,0-2.31.89c0,.42.05.84.08,1.26l12.68.69v1.17c-3.26,0-6.58-.31-9.77.15-1.36.2-2.47,2-3.7,3.15,1.26,1.07,2.44,2.94,3.78,3.06,4.26.4,8.57.15,13.15.15C233.27,327.71,232.78,327.14,223.86,327.14Zm5,7.65h-9.47l-.06-.76h9.53Z" transform="translate(-137.88 -232.8)"/><path class="a" d="M152.46,344.51c-4.61-.33-9.26-.16-13.89-.16l0,1.3c3.79,2.33,8.5-.31,12.39,2.51h-9.26c-2,0-3.65.63-3.77,3s1.28,3.39,3.37,3.44c4.42.1,8.86,0,13.65,0,0-2.63.28-4.81-.1-6.85C154.56,346.52,153.35,344.57,152.46,344.51Zm-11,7.28,0-.76h9.89l.09.76Z" transform="translate(-137.88 -232.8)"/><path class="a" d="M265.94,344.14c-3.06,0-6.21-.14-9.34,0s-4.74,2.17-4.29,5c.32,2,1.76,5.13,3,5.31,4.67.64,9.47.25,14.35.25V340.06l-1.14-.48C267.72,341,266.87,342.51,265.94,344.14Zm.8,7.85a60.37,60.37,0,0,1-8.31-.13c-1-.14-1.84-1.73-2.75-2.66,1-.8,1.92-2.14,3-2.29a62.94,62.94,0,0,1,8.06-.11Z" transform="translate(-137.88 -232.8)"/><path class="a" d="M218.47,343.72c-1.16-.05-2.32,0-3.48,0h-2.5c-5.1.09-6.27,1.1-6.34,5.46s1.11,5.4,6.23,5.49c2,0,4,.07,6,0,4.46-.15,5.63-1.37,5.58-5.69C223.88,344.87,222.88,343.89,218.47,343.72Zm-1.4,8.32c-.82,0-1.65,0-2.48,0v0c-1,0-2.17.33-2.93-.08-1-.53-2.32-1.71-2.26-2.52a4.2,4.2,0,0,1,2.09-3.17c1.65-.55,3.59-.13,5.41-.22,2.3-.1,3.94.46,3.86,3.2C220.7,351.72,219.12,352.15,217.07,352Z" transform="translate(-137.88 -232.8)"/><path class="a" d="M212.57,337.22l.06-1.62-9.56-.83c.09-1.9.17-3.29.22-4.4,3.14-1.74,6.85,1,10.07-2.88l-9.22-.55-3-4.59-2.49,5.86c.49,1.79.93,3.58,1.46,5.34.36,1.21.55,3.18,1.29,3.44C205.08,338.26,208.87,338,212.57,337.22Z" transform="translate(-137.88 -232.8)"/><path class="a" d="M184.07,336.94c1.59,1.62,9.27.91,11.73-1.36l-9.47-.72V330.3c3.08-1.6,6.69.87,9-1.71l-.18-1.33h-8.29l-2.66-5.14c-1.2,2.7-1.94,4.4-2.64,6,.53,2.18.95,4,1.42,5.73C183.29,334.9,183.37,336.23,184.07,336.94Z" transform="translate(-137.88 -232.8)"/><path class="a" d="M142.37,337.6c3.3.21,6.62.11,9.93,0,.57,0,1.12-.76,1.68-1.17-.09-.45-.19-.9-.28-1.36a93.56,93.56,0,0,1-9.77-.12c-1.05-.1-2-1.63-2.93-2.51,1-.88,1.87-2.35,2.95-2.51,2.59-.37,5.28,0,7.92-.2.76-.05,1.46-.89,2.19-1.37-.14-.38-.27-.77-.41-1.15-3.77,0-7.54-.14-11.29.05-2.93.14-4.35,1.95-4.42,4.93C137.86,335.35,139.16,337.4,142.37,337.6Z" transform="translate(-137.88 -232.8)"/><path class="a" d="M196,344.27c-4.23-.36-8.5-.14-13.12-.14.87,3.93-1.31,7.76,1.49,10.52l1.44-.17c.1-2.4.21-4.81.32-7.33h10.24a55.23,55.23,0,0,0,.07,5.83,2.15,2.15,0,0,0,1.46,1.49,2.06,2.06,0,0,0,1.54-1.36c.17-2,.45-4.11-.13-5.93A4.89,4.89,0,0,0,196,344.27Z" transform="translate(-137.88 -232.8)"/><path class="a" d="M269.83,334.67c-11.54-.7-11.54-.7-12.3-7.39a6.35,6.35,0,0,0-1.75-.06,1.84,1.84,0,0,0-1.05.88c-2,5.11.93,9.56,6.39,9.64,2.31,0,4.62,0,6.93,0C270.71,337.76,270.54,336.41,269.83,334.67Z" transform="translate(-137.88 -232.8)"/><path class="a" d="M244.71,334.5c-3.59.26-5.84-.59-5.45-4.87.08-.88-1.14-1.87-1.76-2.81l-1.1.81c-.78,6.74-.22,9.29,3,9.72,3.71.49,7.54.1,11.31-.08.38,0,.7-1.22,1.54-2.8C249.18,334.47,246.93,334.33,244.71,334.5Z" transform="translate(-137.88 -232.8)"/><path class="a" d="M244.37,351.45a27.47,27.47,0,0,0-5.44-.1c-3.54.28-5.89-.48-5.36-4.78.28-2.27-.9-2.95-3.34-2,0,1.85-.42,3.93.13,5.71.46,1.51,1.87,3.62,3.15,3.85a61.12,61.12,0,0,0,10.84.44c.49,0,1.34-1,1.35-1.54A2.09,2.09,0,0,0,244.37,351.45Z" transform="translate(-137.88 -232.8)"/><path class="a" d="M161.81,344.48c.5,3.37-1.79,7.25,2,10a6.67,6.67,0,0,0,.95-3.33c.07-1.29,0-2.58,0-4.38a51,51,0,0,1,6.3.05,46.17,46.17,0,0,1,5.64,1.57C175.21,343.52,173.53,343.13,161.81,344.48Z" transform="translate(-137.88 -232.8)"/><path class="a" d="M157.49,327.65c-1.09,7.63-.85,8.86,2.17,9.82.18-2.46.36-4.86.6-8L171.7,331C170.6,326.73,167.75,326.07,157.49,327.65Z" transform="translate(-137.88 -232.8)"/><path class="a" d="M174.8,330.56c.29,2.41-1.5,5.69,2.72,7.66V327.43C174.22,326.55,174.61,329,174.8,330.56Z" transform="translate(-137.88 -232.8)"/><path class="a" d="M175.08,324.84c0,.39.85,1.09,1.15,1,.55-.15,1-.77,1.47-1.19l-1.56-1.35C175.65,324,175,324.43,175.08,324.84Z" transform="translate(-137.88 -232.8)"/></svg>