<svg xmlns="http://www.w3.org/2000/svg" viewBox="0 0 693.96 122.67"><defs><style>.a{fill:#bfbfbf;}.b{fill:#fff;}</style></defs><title>Design Production</title><path class="a" d="M512.83,294.79a22.49,22.49,0,0,1,1.6-8.63,19,19,0,0,1,4.45-6.58,19.71,19.71,0,0,1,6.78-4.17,25.88,25.88,0,0,1,17.14,0,19.71,19.71,0,0,1,6.78,4.17,19.1,19.1,0,0,1,4.45,6.58,24.19,24.19,0,0,1,0,17.25,19,19,0,0,1-4.45,6.59,19.71,19.71,0,0,1-6.78,4.17,26.05,26.05,0,0,1-17.14,0,19.71,19.71,0,0,1-6.78-4.17,18.91,18.91,0,0,1-4.45-6.59A22.44,22.44,0,0,1,512.83,294.79Zm9.08,0a14.48,14.48,0,0,0,.86,5.12,11.71,11.71,0,0,0,2.5,4,11.42,11.42,0,0,0,3.89,2.66,14,14,0,0,0,10.14,0,11.42,11.42,0,0,0,3.89-2.66,11.83,11.83,0,0,0,2.49-4,15.44,15.44,0,0,0,0-10.22,11.73,11.73,0,0,0-2.49-4.06A11.42,11.42,0,0,0,539.3,283a14,14,0,0,0-10.14,0,11.42,11.42,0,0,0-3.89,2.66,11.61,11.61,0,0,0-2.5,4.06A14.6,14.6,0,0,0,521.91,294.79Z" transform="translate(-81.42 -221.45)"/><path class="b" d="M221.28,332a7.14,7.14,0,0,1,2.46-1.47,8.6,8.6,0,0,1,2.8-.49,7.77,7.77,0,0,1,2.51.37,4.85,4.85,0,0,1,1.72,1,3.78,3.78,0,0,1,1,1.41,4.33,4.33,0,0,1,.33,1.67v6.78c0,.46,0,.89,0,1.28s0,.77.08,1.12H230q-.09-1-.09-2h-.05a4.83,4.83,0,0,1-2,1.82,6.35,6.35,0,0,1-2.66.53,6,6,0,0,1-1.76-.25,4.42,4.42,0,0,1-1.48-.76,3.53,3.53,0,0,1-1-1.24,3.92,3.92,0,0,1-.36-1.72,3.86,3.86,0,0,1,.57-2.16,4.41,4.41,0,0,1,1.57-1.42,7.72,7.72,0,0,1,2.32-.78,16.11,16.11,0,0,1,2.85-.24h1.84v-.56a2.73,2.73,0,0,0-1.76-2.56,3.69,3.69,0,0,0-1.4-.24,5.24,5.24,0,0,0-1.27.14,5.33,5.33,0,0,0-1,.35,4.59,4.59,0,0,0-.81.49l-.7.53Zm7.11,5.27a16.28,16.28,0,0,0-1.83.1,6.71,6.71,0,0,0-1.71.38,3.07,3.07,0,0,0-1.26.78,1.77,1.77,0,0,0-.49,1.29,1.81,1.81,0,0,0,.77,1.65,3.72,3.72,0,0,0,2.08.5,4.14,4.14,0,0,0,1.77-.34,3.29,3.29,0,0,0,1.17-.92,3.43,3.43,0,0,0,.65-1.24,5,5,0,0,0,.19-1.36v-.84Z" transform="translate(-81.42 -221.45)"/><path class="b" d="M236.65,330.34h2.52v2.05h.06a3.58,3.58,0,0,1,.67-1,4.21,4.21,0,0,1,.94-.74,4.6,4.6,0,0,1,1.13-.49,4.39,4.39,0,0,1,1.24-.19,3.5,3.5,0,0,1,1.11.17l-.11,2.72c-.2-.06-.41-.1-.61-.14a3.34,3.34,0,0,0-.62-.06,3.73,3.73,0,0,0-2.83,1,4.56,4.56,0,0,0-1,3.22v6.66h-2.52Z" transform="translate(-81.42 -221.45)"/><path class="b" d="M257,333.87a5.48,5.48,0,0,0-1.47-1.11,4.2,4.2,0,0,0-1.84-.37,4,4,0,0,0-1.8.37,3.85,3.85,0,0,0-1.29,1,4.43,4.43,0,0,0-.78,1.51,5.86,5.86,0,0,0-.27,1.78,4.85,4.85,0,0,0,.31,1.75,4.21,4.21,0,0,0,.87,1.44,4,4,0,0,0,1.34,1,4.32,4.32,0,0,0,1.76.35,4,4,0,0,0,1.82-.38,4.63,4.63,0,0,0,1.4-1.1l1.8,1.79a5.81,5.81,0,0,1-2.29,1.57,8.06,8.06,0,0,1-2.75.47,7.73,7.73,0,0,1-2.82-.5,6.57,6.57,0,0,1-2.2-1.42,6.41,6.41,0,0,1-1.43-2.18,7.73,7.73,0,0,1-.5-2.82,7.86,7.86,0,0,1,.5-2.83,6.61,6.61,0,0,1,1.42-2.21,6.68,6.68,0,0,1,2.18-1.44,7.61,7.61,0,0,1,2.85-.52,7.71,7.71,0,0,1,2.78.52,6.12,6.12,0,0,1,2.31,1.58Z" transform="translate(-81.42 -221.45)"/><path class="b" d="M262,322.44h2.52v9.95h.05a3.76,3.76,0,0,1,1.65-1.73,5.48,5.48,0,0,1,2.72-.66,5.57,5.57,0,0,1,1.83.3,4.1,4.1,0,0,1,1.55.91,4.49,4.49,0,0,1,1,1.58,5.88,5.88,0,0,1,.4,2.28v8.54h-2.52v-7.84a4.39,4.39,0,0,0-.26-1.58,2.76,2.76,0,0,0-.67-1.06,2.53,2.53,0,0,0-1-.59,3.63,3.63,0,0,0-1.14-.18,4,4,0,0,0-1.45.25,3,3,0,0,0-1.18.8,3.71,3.71,0,0,0-.79,1.38,6.56,6.56,0,0,0-.27,2v6.83H262Z" transform="translate(-81.42 -221.45)"/><path class="b" d="M277.87,325.58a1.79,1.79,0,0,1,.55-1.3,1.85,1.85,0,1,1,0,2.6A1.79,1.79,0,0,1,277.87,325.58Zm.59,4.76H281v13.27h-2.52Z" transform="translate(-81.42 -221.45)"/><path class="b" d="M293.08,332.53h-3.61v6c0,.37,0,.74,0,1.1a3,3,0,0,0,.21,1,1.49,1.49,0,0,0,.56.7,1.88,1.88,0,0,0,1.1.27,5,5,0,0,0,.93-.09,2.57,2.57,0,0,0,.87-.3v2.29a3.17,3.17,0,0,1-1.17.35,7.86,7.86,0,0,1-1.1.1,5,5,0,0,1-2.26-.41,2.74,2.74,0,0,1-1.17-1.05,3.25,3.25,0,0,1-.45-1.44c0-.53-.07-1.07-.07-1.61v-6.91H284v-2.19H287v-3.72h2.52v3.72h3.61Z" transform="translate(-81.42 -221.45)"/><path class="b" d="M298.65,337.9a3.39,3.39,0,0,0,.38,1.59,3.9,3.9,0,0,0,1,1.21,4.57,4.57,0,0,0,1.42.79,5.38,5.38,0,0,0,1.68.28,3.72,3.72,0,0,0,2.05-.55,6.51,6.51,0,0,0,1.6-1.44l1.9,1.46A7,7,0,0,1,302.8,344a7.37,7.37,0,0,1-2.84-.53A6.36,6.36,0,0,1,297.8,342a6.56,6.56,0,0,1-1.36-2.21A7.77,7.77,0,0,1,296,337a7.36,7.36,0,0,1,.51-2.76,6.79,6.79,0,0,1,1.43-2.21,6.41,6.41,0,0,1,2.17-1.47,6.92,6.92,0,0,1,2.75-.54,6.57,6.57,0,0,1,3,.62,5.9,5.9,0,0,1,2,1.61,6.51,6.51,0,0,1,1.14,2.24,9.49,9.49,0,0,1,.35,2.54v.89Zm8-2a5.27,5.27,0,0,0-.27-1.54,3.3,3.3,0,0,0-.71-1.22,3.37,3.37,0,0,0-1.19-.82,4.49,4.49,0,0,0-1.67-.29,4.09,4.09,0,0,0-1.69.35,4.15,4.15,0,0,0-1.31.91,4.23,4.23,0,0,0-.82,1.25,3.35,3.35,0,0,0-.3,1.36Z" transform="translate(-81.42 -221.45)"/><path class="b" d="M322.62,333.87a5.18,5.18,0,0,0-1.47-1.11,4.66,4.66,0,0,0-3.64,0,3.72,3.72,0,0,0-1.28,1,4.63,4.63,0,0,0-.79,1.51,5.86,5.86,0,0,0-.27,1.78,5.07,5.07,0,0,0,.31,1.75,4.55,4.55,0,0,0,.87,1.44,3.89,3.89,0,0,0,1.35,1,4.32,4.32,0,0,0,1.76.35,4,4,0,0,0,1.82-.38,4.75,4.75,0,0,0,1.4-1.1l1.79,1.79a5.71,5.71,0,0,1-2.28,1.57,8.16,8.16,0,0,1-2.76.47,7.72,7.72,0,0,1-2.81-.5,6.47,6.47,0,0,1-2.2-1.42,6.26,6.26,0,0,1-1.43-2.18,7.73,7.73,0,0,1-.5-2.82,7.86,7.86,0,0,1,.5-2.83,6.61,6.61,0,0,1,1.42-2.21,6.48,6.48,0,0,1,2.18-1.44,7.6,7.6,0,0,1,2.84-.52,7.76,7.76,0,0,1,2.79.52,6.19,6.19,0,0,1,2.31,1.58Z" transform="translate(-81.42 -221.45)"/><path class="b" d="M335.59,332.53H332v6c0,.37,0,.74,0,1.1a3,3,0,0,0,.21,1,1.55,1.55,0,0,0,.56.7,1.89,1.89,0,0,0,1.11.27,5,5,0,0,0,.92-.09,2.57,2.57,0,0,0,.87-.3v2.29a3.18,3.18,0,0,1-1.16.35,8.1,8.1,0,0,1-1.11.1,5,5,0,0,1-2.26-.41,2.74,2.74,0,0,1-1.17-1.05,3.25,3.25,0,0,1-.45-1.44c0-.53-.07-1.07-.07-1.61v-6.91h-2.91v-2.19h2.91v-3.72H332v3.72h3.61Z" transform="translate(-81.42 -221.45)"/><path class="b" d="M351,343.61H348.5v-2h-.05a3.72,3.72,0,0,1-1.66,1.72,5.44,5.44,0,0,1-2.71.66,5.88,5.88,0,0,1-1.85-.29,4.24,4.24,0,0,1-1.53-.91,4.46,4.46,0,0,1-1.05-1.59,6,6,0,0,1-.39-2.28v-8.54h2.52v7.84a4.59,4.59,0,0,0,.25,1.58,2.81,2.81,0,0,0,.68,1.07,2.53,2.53,0,0,0,1,.59,3.58,3.58,0,0,0,1.14.18,4.29,4.29,0,0,0,1.45-.25,3.13,3.13,0,0,0,1.18-.8,4,4,0,0,0,.78-1.39,6.2,6.2,0,0,0,.28-2v-6.83H351Z" transform="translate(-81.42 -221.45)"/><path class="b" d="M355.7,330.34h2.52v2.05h.06a3.37,3.37,0,0,1,.67-1,4.21,4.21,0,0,1,.94-.74,4.6,4.6,0,0,1,1.13-.49,4.38,4.38,0,0,1,1.23-.19,3.56,3.56,0,0,1,1.12.17l-.11,2.72c-.2-.06-.41-.1-.61-.14a3.34,3.34,0,0,0-.62-.06,3.71,3.71,0,0,0-2.83,1,4.56,4.56,0,0,0-1,3.22v6.66H355.7Z" transform="translate(-81.42 -221.45)"/><path class="b" d="M366.73,332a7.09,7.09,0,0,1,2.47-1.47A8.56,8.56,0,0,1,372,330a7.7,7.7,0,0,1,2.5.37,4.76,4.76,0,0,1,1.72,1,3.92,3.92,0,0,1,1,1.41,4.51,4.51,0,0,1,.32,1.67v6.78c0,.46,0,.89,0,1.28s.05.77.08,1.12h-2.24c-.05-.67-.08-1.34-.08-2h-.06a4.87,4.87,0,0,1-2,1.82,6.39,6.39,0,0,1-2.67.53,6,6,0,0,1-1.76-.25,4.28,4.28,0,0,1-1.47-.76,3.53,3.53,0,0,1-1-1.24,4.25,4.25,0,0,1,.21-3.88,4.38,4.38,0,0,1,1.56-1.42,7.79,7.79,0,0,1,2.33-.78,16,16,0,0,1,2.84-.24h1.85v-.56a2.84,2.84,0,0,0-.2-1,2.76,2.76,0,0,0-.58-.91,2.92,2.92,0,0,0-1-.64A3.75,3.75,0,0,0,372,332a5.3,5.3,0,0,0-1.27.14,5.48,5.48,0,0,0-1,.35,5.08,5.08,0,0,0-.82.49c-.24.19-.47.37-.7.53Zm7.12,5.27a16.59,16.59,0,0,0-1.84.1,6.91,6.91,0,0,0-1.71.38,3.21,3.21,0,0,0-1.26.78,2.06,2.06,0,0,0,.28,2.94,3.76,3.76,0,0,0,2.09.5,4.06,4.06,0,0,0,1.76-.34,3.32,3.32,0,0,0,1.18-.92,3.41,3.41,0,0,0,.64-1.24,5,5,0,0,0,.2-1.36v-.84Z" transform="translate(-81.42 -221.45)"/><path class="b" d="M382.22,322.44h2.52v21.17h-2.52Z" transform="translate(-81.42 -221.45)"/><path class="b" d="M396.53,330.34h2.35v2.07h.06a2.19,2.19,0,0,1,.43-.7,4.42,4.42,0,0,1,.9-.79,5.19,5.19,0,0,1,1.29-.65,5.23,5.23,0,0,1,4.13.35,4.61,4.61,0,0,1,1.65,1.85,4.28,4.28,0,0,1,1.82-1.85,5.09,5.09,0,0,1,2.38-.62,5.43,5.43,0,0,1,2.52.51,4,4,0,0,1,1.54,1.33,5.17,5.17,0,0,1,.77,1.87,11.12,11.12,0,0,1,.21,2.18v7.72h-2.52v-7.39a9.71,9.71,0,0,0-.1-1.45,3.42,3.42,0,0,0-.4-1.24,2.37,2.37,0,0,0-.87-.85,3.59,3.59,0,0,0-4.09.8,4.93,4.93,0,0,0-.79,2.88v7.25H405.3v-6.94a15.41,15.41,0,0,0-.1-1.74,4.43,4.43,0,0,0-.39-1.36,2.15,2.15,0,0,0-.85-.89,2.81,2.81,0,0,0-1.47-.32,3.47,3.47,0,0,0-1.3.26,3.09,3.09,0,0,0-1.1.8,4,4,0,0,0-.76,1.36,6,6,0,0,0-.28,2v6.88h-2.52Z" transform="translate(-81.42 -221.45)"/><path class="b" d="M423.16,337.9a3.39,3.39,0,0,0,.38,1.59,3.87,3.87,0,0,0,1,1.21,4.62,4.62,0,0,0,1.43.79,5.29,5.29,0,0,0,1.68.28,3.72,3.72,0,0,0,2.05-.55,6.3,6.3,0,0,0,1.59-1.44l1.91,1.46a7,7,0,0,1-5.88,2.71,7.42,7.42,0,0,1-2.85-.53,6.23,6.23,0,0,1-2.15-1.47,6.56,6.56,0,0,1-1.36-2.21,7.77,7.77,0,0,1-.48-2.76,7.18,7.18,0,0,1,.52-2.76,6.79,6.79,0,0,1,1.43-2.21,6.41,6.41,0,0,1,2.17-1.47,6.87,6.87,0,0,1,2.74-.54,6.61,6.61,0,0,1,3,.62,5.9,5.9,0,0,1,2,1.61,6.32,6.32,0,0,1,1.13,2.24,9.11,9.11,0,0,1,.35,2.54v.89Zm7.95-2a5,5,0,0,0-.26-1.54,3.32,3.32,0,0,0-.72-1.22,3.2,3.2,0,0,0-1.19-.82,4.44,4.44,0,0,0-1.66-.29,4.14,4.14,0,0,0-1.7.35,4.09,4.09,0,0,0-2.12,2.16,3.35,3.35,0,0,0-.3,1.36Z" transform="translate(-81.42 -221.45)"/><path class="b" d="M444.89,332.53h-3.61v6c0,.37,0,.74,0,1.1a3,3,0,0,0,.21,1,1.55,1.55,0,0,0,.56.7,1.89,1.89,0,0,0,1.11.27,5,5,0,0,0,.92-.09,2.57,2.57,0,0,0,.87-.3v2.29a3.18,3.18,0,0,1-1.16.35,8.1,8.1,0,0,1-1.11.1,5,5,0,0,1-2.26-.41,2.74,2.74,0,0,1-1.17-1.05,3.39,3.39,0,0,1-.45-1.44c-.05-.53-.07-1.07-.07-1.61v-6.91h-2.91v-2.19h2.91v-3.72h2.52v3.72h3.61Z" transform="translate(-81.42 -221.45)"/><path class="b" d="M449,332a7,7,0,0,1,2.46-1.47,8.56,8.56,0,0,1,2.8-.49,7.77,7.77,0,0,1,2.51.37,4.85,4.85,0,0,1,1.72,1,3.78,3.78,0,0,1,1,1.41,4.33,4.33,0,0,1,.33,1.67v6.78c0,.46,0,.89,0,1.28s0,.77.09,1.12h-2.24q-.09-1-.09-2h-.05a5,5,0,0,1-2,1.82,6.35,6.35,0,0,1-2.66.53,6.06,6.06,0,0,1-1.77-.25,4.28,4.28,0,0,1-1.47-.76,3.53,3.53,0,0,1-1-1.24,3.92,3.92,0,0,1-.37-1.72,3.86,3.86,0,0,1,.58-2.16,4.41,4.41,0,0,1,1.57-1.42,7.72,7.72,0,0,1,2.32-.78,16.07,16.07,0,0,1,2.84-.24h1.85v-.56a2.73,2.73,0,0,0-1.76-2.56,3.69,3.69,0,0,0-1.4-.24,5.39,5.39,0,0,0-1.28.14,5.48,5.48,0,0,0-1,.35,4.59,4.59,0,0,0-.81.49l-.7.53Zm7.11,5.27a16.59,16.59,0,0,0-1.84.1,6.73,6.73,0,0,0-1.7.38,3.07,3.07,0,0,0-1.26.78,1.77,1.77,0,0,0-.49,1.29,1.81,1.81,0,0,0,.77,1.65,3.7,3.7,0,0,0,2.08.5,4.14,4.14,0,0,0,1.77-.34,3.38,3.38,0,0,0,1.17-.92,3.43,3.43,0,0,0,.65-1.24,5,5,0,0,0,.19-1.36v-.84Z" transform="translate(-81.42 -221.45)"/><path class="b" d="M464.41,322.44h2.52v21.17h-2.52Z" transform="translate(-81.42 -221.45)"/><path class="b" d="M470.15,330.34H473l3,9.91H476l3.18-9.91h2.69l3.36,9.91h.05l2.83-9.91h2.69l-4.28,13.27H484l-3.52-9.91h-.05l-3.21,9.91h-2.69Z" transform="translate(-81.42 -221.45)"/><path class="b" d="M492.87,337a6.84,6.84,0,0,1,.54-2.72,7.2,7.2,0,0,1,1.5-2.21,7.07,7.07,0,0,1,11.52,2.21A6.68,6.68,0,0,1,507,337a7,7,0,0,1-2,4.94,7,7,0,0,1-2.25,1.48,7.25,7.25,0,0,1-5.54,0,6.9,6.9,0,0,1-3.74-3.69A6.93,6.93,0,0,1,492.87,337Zm2.68,0a5.58,5.58,0,0,0,.31,1.86,4.43,4.43,0,0,0,.87,1.46,4,4,0,0,0,1.37.95,4.91,4.91,0,0,0,3.64,0,4.1,4.1,0,0,0,1.38-.95,4.24,4.24,0,0,0,.86-1.46,5.74,5.74,0,0,0,0-3.72,4.15,4.15,0,0,0-.86-1.46,4.1,4.1,0,0,0-1.38-1,4.91,4.91,0,0,0-3.64,0,4,4,0,0,0-1.37,1,4.33,4.33,0,0,0-.87,1.46A5.54,5.54,0,0,0,495.55,337Z" transform="translate(-81.42 -221.45)"/><path class="b" d="M510.93,330.34h2.52v2.05h0a3.82,3.82,0,0,1,.67-1,4.71,4.71,0,0,1,.94-.74,4.84,4.84,0,0,1,1.14-.49,4.38,4.38,0,0,1,1.23-.19,3.6,3.6,0,0,1,1.12.17l-.11,2.72c-.21-.06-.41-.1-.62-.14a3.15,3.15,0,0,0-.61-.06,3.7,3.7,0,0,0-2.83,1,4.51,4.51,0,0,0-1,3.22v6.66h-2.52Z" transform="translate(-81.42 -221.45)"/><path class="b" d="M522,322.44h2.52v13.67l5.71-5.74h3.5l-6.18,6,6.72,7.22h-3.59l-6.16-6.88v6.88H522Z" transform="translate(-81.42 -221.45)"/><path class="b" d="M562.34,343.61h-3.61L556.3,341a10.21,10.21,0,0,1-2.68,2.33,6.74,6.74,0,0,1-3.4.81,8,8,0,0,1-2.91-.49,5.91,5.91,0,0,1-2-1.3,5.15,5.15,0,0,1-1.17-1.84,6.06,6.06,0,0,1-.38-2.11,4.65,4.65,0,0,1,.37-1.89,5.54,5.54,0,0,1,1-1.56,7.7,7.7,0,0,1,1.44-1.26,12.71,12.71,0,0,1,1.72-1,14,14,0,0,1-1.64-2.07,4.53,4.53,0,0,1-.69-2.52,4.3,4.3,0,0,1,1.6-3.44,5.23,5.23,0,0,1,1.68-.9,6.42,6.42,0,0,1,2-.31,6.7,6.7,0,0,1,2,.28,4.89,4.89,0,0,1,1.64.84,4,4,0,0,1,1.11,1.4,4.49,4.49,0,0,1,.4,2,4,4,0,0,1-.36,1.7,5.5,5.5,0,0,1-1,1.4,7.9,7.9,0,0,1-1.32,1.12c-.49.32-1,.62-1.48.88l3.92,4.09,2.49-4.06h3L557.83,339Zm-12.43-9.35c-.39.23-.79.47-1.19.73a6.63,6.63,0,0,0-1.08.87,3.94,3.94,0,0,0-.77,1.08,3.26,3.26,0,0,0,0,2.71,3.66,3.66,0,0,0,.85,1.11,4,4,0,0,0,1.19.74,3.57,3.57,0,0,0,1.38.27,4,4,0,0,0,1.36-.23,6.12,6.12,0,0,0,1.18-.57,6.5,6.5,0,0,0,1-.8,12.2,12.2,0,0,0,.86-.92Zm3.72-6.33a1.92,1.92,0,0,0-.67-1.55,2.54,2.54,0,0,0-1.74-.58,3,3,0,0,0-1.84.61,2,2,0,0,0-.79,1.72,2.37,2.37,0,0,0,.19.95,4.6,4.6,0,0,0,.47.87,8.24,8.24,0,0,0,.63.78c.22.25.45.48.67.7.34-.18.69-.39,1.05-.61a6.41,6.41,0,0,0,1-.76,3.94,3.94,0,0,0,.74-.94A2.31,2.31,0,0,0,553.63,327.93Z" transform="translate(-81.42 -221.45)"/><path class="b" d="M579.37,333.67a4,4,0,0,0-1.1-.93,3.12,3.12,0,0,0-1.61-.38,3,3,0,0,0-1.56.38,1.2,1.2,0,0,0-.66,1.1,1.27,1.27,0,0,0,.38,1,2.81,2.81,0,0,0,.9.59,5.43,5.43,0,0,0,1.1.34l1,.19a11.41,11.41,0,0,1,1.53.48,4.26,4.26,0,0,1,1.23.73,3,3,0,0,1,.81,1.09,4.16,4.16,0,0,1-.18,3.49A4.13,4.13,0,0,1,580,343a5.2,5.2,0,0,1-1.72.73,8.64,8.64,0,0,1-1.95.22,7.83,7.83,0,0,1-2.9-.5,5.26,5.26,0,0,1-2.22-1.85l1.9-1.57a7.63,7.63,0,0,0,1.37,1.09,3.37,3.37,0,0,0,1.85.48,4.63,4.63,0,0,0,1-.1,2.83,2.83,0,0,0,.86-.31,1.9,1.9,0,0,0,.62-.53,1.19,1.19,0,0,0,.24-.74,1.28,1.28,0,0,0-.35-.92,2.58,2.58,0,0,0-.84-.58,6.67,6.67,0,0,0-1-.34l-1-.21c-.55-.13-1.06-.28-1.55-.44a4.73,4.73,0,0,1-1.28-.68,3.09,3.09,0,0,1-.9-1.06,3.48,3.48,0,0,1-.34-1.6,3.58,3.58,0,0,1,.44-1.8,3.82,3.82,0,0,1,1.15-1.28,5.12,5.12,0,0,1,1.62-.75,6.81,6.81,0,0,1,1.84-.26,6.66,6.66,0,0,1,2.57.51,4.05,4.05,0,0,1,2,1.68Z" transform="translate(-81.42 -221.45)"/><path class="b" d="M593.12,332.53h-3.61v6c0,.37,0,.74,0,1.1a2.76,2.76,0,0,0,.21,1,1.49,1.49,0,0,0,.56.7,1.88,1.88,0,0,0,1.1.27,5,5,0,0,0,.93-.09,2.57,2.57,0,0,0,.87-.3v2.29a3.17,3.17,0,0,1-1.17.35,7.86,7.86,0,0,1-1.1.1,4.93,4.93,0,0,1-2.26-.41,2.74,2.74,0,0,1-1.17-1.05,3.25,3.25,0,0,1-.45-1.44c0-.53-.07-1.07-.07-1.61v-6.91h-2.92v-2.19H587v-3.72h2.52v3.72h3.61Z" transform="translate(-81.42 -221.45)"/><path class="b" d="M598.69,337.9a3.39,3.39,0,0,0,.38,1.59,3.77,3.77,0,0,0,1,1.21,4.57,4.57,0,0,0,1.42.79,5.33,5.33,0,0,0,1.68.28,3.72,3.72,0,0,0,2.05-.55,6.3,6.3,0,0,0,1.59-1.44l1.91,1.46a7,7,0,0,1-5.88,2.71,7.46,7.46,0,0,1-2.85-.53,6.42,6.42,0,0,1-2.15-1.47,6.56,6.56,0,0,1-1.36-2.21A7.77,7.77,0,0,1,596,337a7.37,7.37,0,0,1,.52-2.76A6.79,6.79,0,0,1,598,332a6.41,6.41,0,0,1,2.17-1.47,6.92,6.92,0,0,1,2.75-.54,6.57,6.57,0,0,1,3,.62,5.9,5.9,0,0,1,2,1.61,6.51,6.51,0,0,1,1.14,2.24,9.48,9.48,0,0,1,.34,2.54v.89Zm8-2a5.27,5.27,0,0,0-.27-1.54,3.44,3.44,0,0,0-.71-1.22,3.37,3.37,0,0,0-1.19-.82,4.53,4.53,0,0,0-1.67-.29,4.17,4.17,0,0,0-1.7.35,4.09,4.09,0,0,0-2.12,2.16,3.35,3.35,0,0,0-.3,1.36Z" transform="translate(-81.42 -221.45)"/><path class="b" d="M615.16,337.9a3.39,3.39,0,0,0,.38,1.59,3.87,3.87,0,0,0,1,1.21,4.73,4.73,0,0,0,1.43.79,5.29,5.29,0,0,0,1.68.28,3.72,3.72,0,0,0,2.05-.55,6.3,6.3,0,0,0,1.59-1.44l1.91,1.46a7,7,0,0,1-5.88,2.71,7.42,7.42,0,0,1-2.85-.53,6.23,6.23,0,0,1-2.15-1.47,6.56,6.56,0,0,1-1.36-2.21,7.77,7.77,0,0,1-.48-2.76,7.18,7.18,0,0,1,.52-2.76,6.79,6.79,0,0,1,1.43-2.21,6.41,6.41,0,0,1,2.17-1.47,6.88,6.88,0,0,1,2.75-.54,6.6,6.6,0,0,1,3,.62,5.9,5.9,0,0,1,2,1.61,6.32,6.32,0,0,1,1.13,2.24,9.11,9.11,0,0,1,.35,2.54v.89Zm8-2a5,5,0,0,0-.26-1.54,3.32,3.32,0,0,0-.72-1.22,3.25,3.25,0,0,0-1.18-.82,4.53,4.53,0,0,0-1.67-.29,4.14,4.14,0,0,0-1.7.35,4.09,4.09,0,0,0-2.12,2.16,3.35,3.35,0,0,0-.3,1.36Z" transform="translate(-81.42 -221.45)"/><path class="b" d="M629.81,322.44h2.52v21.17h-2.52Z" transform="translate(-81.42 -221.45)"/><path class="b" d="M651.18,333.67a3.88,3.88,0,0,0-1.11-.93,3.12,3.12,0,0,0-1.61-.38,3,3,0,0,0-1.56.38,1.2,1.2,0,0,0-.66,1.1,1.27,1.27,0,0,0,.38,1,2.93,2.93,0,0,0,.9.59,5.52,5.52,0,0,0,1.11.34l1,.19a11,11,0,0,1,1.53.48,4.13,4.13,0,0,1,1.23.73,3,3,0,0,1,.81,1.09,4.16,4.16,0,0,1-.18,3.49,4,4,0,0,1-1.23,1.3,5.11,5.11,0,0,1-1.72.73,8.64,8.64,0,0,1-2,.22,7.83,7.83,0,0,1-2.9-.5A5.26,5.26,0,0,1,643,341.6l1.9-1.57a7.63,7.63,0,0,0,1.37,1.09,3.4,3.4,0,0,0,1.85.48,4.63,4.63,0,0,0,1-.1,2.8,2.8,0,0,0,.87-.31,2,2,0,0,0,.61-.53,1.19,1.19,0,0,0,.24-.74,1.28,1.28,0,0,0-.35-.92,2.38,2.38,0,0,0-.84-.58,6.67,6.67,0,0,0-1-.34l-1-.21c-.54-.13-1.06-.28-1.54-.44a4.65,4.65,0,0,1-1.29-.68,3.2,3.2,0,0,1-.9-1.06,3.48,3.48,0,0,1-.33-1.6,3.58,3.58,0,0,1,.43-1.8,3.82,3.82,0,0,1,1.15-1.28,5.23,5.23,0,0,1,1.62-.75,6.81,6.81,0,0,1,1.84-.26,6.74,6.74,0,0,1,2.58.51,4,4,0,0,1,2,1.68Z" transform="translate(-81.42 -221.45)"/><path class="b" d="M664.92,332.53h-3.61v6c0,.37,0,.74,0,1.1a3,3,0,0,0,.21,1,1.55,1.55,0,0,0,.56.7,1.89,1.89,0,0,0,1.11.27,5,5,0,0,0,.92-.09,2.57,2.57,0,0,0,.87-.3v2.29a3.18,3.18,0,0,1-1.16.35,8.1,8.1,0,0,1-1.11.1,5,5,0,0,1-2.26-.41,2.74,2.74,0,0,1-1.17-1.05,3.39,3.39,0,0,1-.45-1.44c-.05-.53-.07-1.07-.07-1.61v-6.91h-2.91v-2.19h2.91v-3.72h2.52v3.72h3.61Z" transform="translate(-81.42 -221.45)"/><path class="b" d="M668.68,330.34h2.52v2.05h0a3.62,3.62,0,0,1,.68-1,4.39,4.39,0,0,1,.93-.74,4.84,4.84,0,0,1,1.14-.49,4.38,4.38,0,0,1,1.23-.19,3.56,3.56,0,0,1,1.12.17l-.11,2.72c-.21-.06-.41-.1-.62-.14a3.15,3.15,0,0,0-.61-.06,3.71,3.71,0,0,0-2.83,1,4.56,4.56,0,0,0-1,3.22v6.66h-2.52Z" transform="translate(-81.42 -221.45)"/><path class="b" d="M691.47,343.61H689v-2h-.05a3.72,3.72,0,0,1-1.66,1.72,5.44,5.44,0,0,1-2.71.66,5.88,5.88,0,0,1-1.85-.29,4.24,4.24,0,0,1-1.53-.91,4.33,4.33,0,0,1-1-1.59,6,6,0,0,1-.39-2.28v-8.54h2.52v7.84a4.37,4.37,0,0,0,.25,1.58,2.81,2.81,0,0,0,.68,1.07,2.45,2.45,0,0,0,1,.59,3.58,3.58,0,0,0,1.14.18,4.29,4.29,0,0,0,1.45-.25,3.13,3.13,0,0,0,1.18-.8,4,4,0,0,0,.78-1.39,6.2,6.2,0,0,0,.28-2v-6.83h2.52Z" transform="translate(-81.42 -221.45)"/><path class="b" d="M705.64,333.87a5.18,5.18,0,0,0-1.47-1.11,4.66,4.66,0,0,0-3.64,0,3.85,3.85,0,0,0-1.29,1,4.81,4.81,0,0,0-.78,1.51,5.86,5.86,0,0,0-.27,1.78,5.07,5.07,0,0,0,.31,1.75,4.55,4.55,0,0,0,.87,1.44,4,4,0,0,0,1.34,1,4.37,4.37,0,0,0,1.77.35,4,4,0,0,0,1.82-.38,4.75,4.75,0,0,0,1.4-1.1l1.79,1.79a5.71,5.71,0,0,1-2.28,1.57,8.16,8.16,0,0,1-2.76.47,7.68,7.68,0,0,1-2.81-.5,6.47,6.47,0,0,1-2.2-1.42,6.26,6.26,0,0,1-1.43-2.18,7.53,7.53,0,0,1-.51-2.82,7.66,7.66,0,0,1,.51-2.83,6.74,6.74,0,0,1,1.41-2.21,6.62,6.62,0,0,1,2.19-1.44,7.6,7.6,0,0,1,2.84-.52,7.76,7.76,0,0,1,2.79.52,6.28,6.28,0,0,1,2.31,1.58Z" transform="translate(-81.42 -221.45)"/><path class="b" d="M718.61,332.53H715v6c0,.37,0,.74,0,1.1a2.76,2.76,0,0,0,.21,1,1.49,1.49,0,0,0,.56.7,1.88,1.88,0,0,0,1.1.27,5,5,0,0,0,.93-.09,2.64,2.64,0,0,0,.87-.3v2.29a3.17,3.17,0,0,1-1.17.35,7.86,7.86,0,0,1-1.1.1,4.93,4.93,0,0,1-2.26-.41,2.74,2.74,0,0,1-1.17-1.05,3.13,3.13,0,0,1-.45-1.44c0-.53-.07-1.07-.07-1.61v-6.91h-2.92v-2.19h2.92v-3.72H715v3.72h3.61Z" transform="translate(-81.42 -221.45)"/><path class="b" d="M734.07,343.61h-2.52v-2h-.06a3.74,3.74,0,0,1-1.65,1.72,5.45,5.45,0,0,1-2.72.66,5.92,5.92,0,0,1-1.85-.29,4.2,4.2,0,0,1-1.52-.91,4.33,4.33,0,0,1-1-1.59,6,6,0,0,1-.39-2.28v-8.54h2.52v7.84a4.37,4.37,0,0,0,.25,1.58,2.8,2.8,0,0,0,.67,1.07,2.49,2.49,0,0,0,1,.59,3.56,3.56,0,0,0,1.13.18,4.34,4.34,0,0,0,1.46-.25,3.1,3.1,0,0,0,1.17-.8,3.83,3.83,0,0,0,.79-1.39,6.5,6.5,0,0,0,.28-2v-6.83h2.52Z" transform="translate(-81.42 -221.45)"/><path class="b" d="M738.72,330.34h2.52v2.05h0a3.62,3.62,0,0,1,.68-1,4.39,4.39,0,0,1,.93-.74,4.84,4.84,0,0,1,1.14-.49,4.38,4.38,0,0,1,1.23-.19,3.56,3.56,0,0,1,1.12.17l-.11,2.72c-.21-.06-.41-.1-.62-.14a3.15,3.15,0,0,0-.61-.06,3.71,3.71,0,0,0-2.83,1,4.56,4.56,0,0,0-1,3.22v6.66h-2.52Z" transform="translate(-81.42 -221.45)"/><path class="b" d="M751.54,337.9a3.39,3.39,0,0,0,.38,1.59,3.77,3.77,0,0,0,1,1.21,4.57,4.57,0,0,0,1.42.79,5.33,5.33,0,0,0,1.68.28,3.72,3.72,0,0,0,2.05-.55,6.3,6.3,0,0,0,1.59-1.44l1.91,1.46a7,7,0,0,1-5.88,2.71,7.46,7.46,0,0,1-2.85-.53,6.42,6.42,0,0,1-2.15-1.47,6.56,6.56,0,0,1-1.36-2.21,7.77,7.77,0,0,1-.48-2.76,7.37,7.37,0,0,1,.52-2.76A6.79,6.79,0,0,1,750.8,332a6.41,6.41,0,0,1,2.17-1.47,6.92,6.92,0,0,1,2.75-.54,6.57,6.57,0,0,1,3,.62,5.9,5.9,0,0,1,2,1.61,6.51,6.51,0,0,1,1.14,2.24,9.48,9.48,0,0,1,.34,2.54v.89Zm8-2a5.27,5.27,0,0,0-.27-1.54,3.44,3.44,0,0,0-.71-1.22,3.37,3.37,0,0,0-1.19-.82,4.53,4.53,0,0,0-1.67-.29,4.14,4.14,0,0,0-1.7.35,4.09,4.09,0,0,0-2.12,2.16,3.35,3.35,0,0,0-.3,1.36Z" transform="translate(-81.42 -221.45)"/><path class="b" d="M773.05,333.67a4,4,0,0,0-1.1-.93,3.12,3.12,0,0,0-1.61-.38,3,3,0,0,0-1.56.38,1.2,1.2,0,0,0-.66,1.1,1.27,1.27,0,0,0,.38,1,2.81,2.81,0,0,0,.9.59,5.43,5.43,0,0,0,1.1.34l1,.19a11.41,11.41,0,0,1,1.53.48,4.4,4.4,0,0,1,1.23.73,3,3,0,0,1,.81,1.09,4.16,4.16,0,0,1-.18,3.49,4.13,4.13,0,0,1-1.23,1.3,5.2,5.2,0,0,1-1.72.73,8.64,8.64,0,0,1-2,.22,7.83,7.83,0,0,1-2.9-.5,5.35,5.35,0,0,1-2.23-1.85l1.91-1.57a7.63,7.63,0,0,0,1.37,1.09,3.37,3.37,0,0,0,1.85.48,4.63,4.63,0,0,0,1-.1,2.83,2.83,0,0,0,.86-.31,1.9,1.9,0,0,0,.62-.53,1.19,1.19,0,0,0,.24-.74,1.28,1.28,0,0,0-.35-.92,2.58,2.58,0,0,0-.84-.58,6.67,6.67,0,0,0-1-.34l-1-.21c-.54-.13-1-.28-1.54-.44a4.73,4.73,0,0,1-1.28-.68,3,3,0,0,1-.9-1.06,3.48,3.48,0,0,1-.34-1.6,3.58,3.58,0,0,1,.44-1.8A3.9,3.9,0,0,1,767,331a5.18,5.18,0,0,1,1.63-.75,6.8,6.8,0,0,1,1.83-.26,6.67,6.67,0,0,1,2.58.51,4.05,4.05,0,0,1,2,1.68Z" transform="translate(-81.42 -221.45)"/><path class="a" d="M221.14,275h14.73a29.42,29.42,0,0,1,5.83.56,13.28,13.28,0,0,1,4.78,1.93,9.73,9.73,0,0,1,3.25,3.7,12.68,12.68,0,0,1,1.21,5.85,13.62,13.62,0,0,1-1.12,5.83,9.59,9.59,0,0,1-3.08,3.75,12.56,12.56,0,0,1-4.65,2,27.42,27.42,0,0,1-5.83.59h-6.38v15.46h-8.74Zm8.74,16.8h5.82a11.21,11.21,0,0,0,2.27-.22,5.94,5.94,0,0,0,2-.76,4,4,0,0,0,1.4-1.45,4.57,4.57,0,0,0,.53-2.33,3.9,3.9,0,0,0-.7-2.43,4.5,4.5,0,0,0-1.79-1.43,7.75,7.75,0,0,0-2.44-.65,25.66,25.66,0,0,0-2.57-.14h-4.48Z" transform="translate(-81.42 -221.45)"/><path class="a" d="M256.37,275h15.35a27.24,27.24,0,0,1,5.74.59,13.73,13.73,0,0,1,4.76,2,9.83,9.83,0,0,1,3.25,3.7,12.54,12.54,0,0,1,1.2,5.79,11.67,11.67,0,0,1-2.18,7.14,9.85,9.85,0,0,1-6.39,3.73l10.08,16.75H277.71l-8.29-15.86h-4.31v15.86h-8.74Zm8.74,16.41h5.15c.79,0,1.62,0,2.49-.08a7.91,7.91,0,0,0,2.38-.51,4.2,4.2,0,0,0,1.77-1.31,4.06,4.06,0,0,0,.7-2.52,4.2,4.2,0,0,0-.62-2.41,4,4,0,0,0-1.57-1.37,6.79,6.79,0,0,0-2.18-.65,18.21,18.21,0,0,0-2.41-.17h-5.71Z" transform="translate(-81.42 -221.45)"/><path class="a" d="M290.87,294.79a22.3,22.3,0,0,1,1.6-8.63,18.82,18.82,0,0,1,4.45-6.58,19.53,19.53,0,0,1,6.78-4.17,25.88,25.88,0,0,1,17.14,0,19.58,19.58,0,0,1,6.77,4.17,18.82,18.82,0,0,1,4.45,6.58,24,24,0,0,1,0,17.25,18.77,18.77,0,0,1-4.45,6.59,19.58,19.58,0,0,1-6.77,4.17,26.05,26.05,0,0,1-17.14,0,19.53,19.53,0,0,1-6.78-4.17,18.77,18.77,0,0,1-4.45-6.59A22.25,22.25,0,0,1,290.87,294.79Zm9.07,0a14.48,14.48,0,0,0,.87,5.12,11.83,11.83,0,0,0,2.49,4,11.46,11.46,0,0,0,3.9,2.66,14,14,0,0,0,10.14,0,11.51,11.51,0,0,0,3.89-2.66,11.83,11.83,0,0,0,2.49-4,15.44,15.44,0,0,0,0-10.22,11.73,11.73,0,0,0-2.49-4.06,11.51,11.51,0,0,0-3.89-2.66,14,14,0,0,0-10.14,0,11.46,11.46,0,0,0-3.9,2.66,11.73,11.73,0,0,0-2.49,4.06A14.6,14.6,0,0,0,299.94,294.79Z" transform="translate(-81.42 -221.45)"/><path class="a" d="M340.33,275h13.1a37.4,37.4,0,0,1,9.05,1.07,20.65,20.65,0,0,1,7.48,3.44,17.07,17.07,0,0,1,5.07,6.19,20.91,20.91,0,0,1,1.87,9.24,18.94,18.94,0,0,1-1.82,8.49,18.38,18.38,0,0,1-4.9,6.16,21.75,21.75,0,0,1-7.11,3.78,27.61,27.61,0,0,1-8.46,1.29H340.33Zm8.73,31.59h4.54a23.92,23.92,0,0,0,5.63-.62,12,12,0,0,0,4.51-2,9.8,9.8,0,0,0,3-3.75,13.46,13.46,0,0,0,1.09-5.69,11.21,11.21,0,0,0-1.09-5.07,10.11,10.11,0,0,0-2.95-3.55,12.62,12.62,0,0,0-4.34-2.1,19.09,19.09,0,0,0-5.23-.7h-5.16Z" transform="translate(-81.42 -221.45)"/><path class="a" d="M416.61,299.33a19.33,19.33,0,0,1-1.06,6.49,14.37,14.37,0,0,1-3.17,5.16,14.52,14.52,0,0,1-5.23,3.41,22,22,0,0,1-14.51,0A14.56,14.56,0,0,1,387.4,311a14.35,14.35,0,0,1-3.16-5.16,19.09,19.09,0,0,1-1.07-6.49V275h8.74v24a9.75,9.75,0,0,0,.59,3.42,8.09,8.09,0,0,0,1.65,2.71,7.48,7.48,0,0,0,2.55,1.8,8.15,8.15,0,0,0,3.22.64,7.94,7.94,0,0,0,3.19-.64,7.55,7.55,0,0,0,2.52-1.8,8.09,8.09,0,0,0,1.65-2.71,9.53,9.53,0,0,0,.59-3.42V275h8.74Z" transform="translate(-81.42 -221.45)"/><path class="a" d="M451,285.27a8.61,8.61,0,0,0-3.16-2.41,10.58,10.58,0,0,0-4.35-.84,10.85,10.85,0,0,0-8.2,3.61,12.36,12.36,0,0,0-2.41,4.06,15.44,15.44,0,0,0,0,10.22,12.77,12.77,0,0,0,2.38,4,10.8,10.8,0,0,0,3.56,2.66,10.31,10.31,0,0,0,4.39.95,9.82,9.82,0,0,0,4.76-1.12,9.44,9.44,0,0,0,3.42-3.14l7.28,5.43a15.13,15.13,0,0,1-6.38,5.21,19.79,19.79,0,0,1-8,1.68,24.38,24.38,0,0,1-8.56-1.45A19.53,19.53,0,0,1,429,310a18.93,18.93,0,0,1-4.46-6.59,24.19,24.19,0,0,1,0-17.25,19,19,0,0,1,4.46-6.58,19.53,19.53,0,0,1,6.78-4.17,24.38,24.38,0,0,1,8.56-1.46,20.68,20.68,0,0,1,3.51.31,19.23,19.23,0,0,1,3.58,1,16.73,16.73,0,0,1,3.39,1.79,13.74,13.74,0,0,1,2.91,2.75Z" transform="translate(-81.42 -221.45)"/><path class="a" d="M472.62,282.69H461.31V275h31.36v7.73H481.36v31.93h-8.74Z" transform="translate(-81.42 -221.45)"/><path class="a" d="M497.43,275h8.74v39.66h-8.74Z" transform="translate(-81.42 -221.45)"/><path class="a" d="M562.29,275h11.87L591,302.52h.11V275h8.74v39.66H588.44l-17.3-28.23H571v28.23h-8.74Z" transform="translate(-81.42 -221.45)"/><path class="a" d="M138.57,344.12c0-17.95,0-29.32,0-47.27V295.5h1.31c10.93,0,21.84,0,32.76,0a12.6,12.6,0,0,0,12.79-11.1,16.13,16.13,0,0,0-.64-7.33,12.37,12.37,0,0,0-11-8.25l-17-.2c-.42,0-.84,0-1.33,0V251.83h1.14c5.42,0,10.85,0,16.28,0a29,29,0,0,1,15.31,4.58,29.87,29.87,0,0,1,11.89,14,29.13,29.13,0,0,1,2.11,8,29.88,29.88,0,0,1-6,22.14,30,30,0,0,1-10.55,8.66,27.08,27.08,0,0,1-9.72,2.86c-.9.07-1.8.19-2.7.2-5.52,0-11.06,0-16.58,0h-1.24v1.23c0,6.89.07,30.63.07,30.63H138.57" transform="translate(-81.42 -221.45)"/><path class="b" d="M145.29,222.17c0,17.88,0,27.2,0,45.07v1.35H144c-10.68,0-21.35,0-32,0a13.43,13.43,0,0,0-6.51,1.32,12.46,12.46,0,0,0-7,10.32,14.48,14.48,0,0,0,1.55,8.79c2,3.59,5.13,5.91,9.23,6.15,6,.35,11.93.21,17.9.28h1.31v16.77h-1.07c-5.71,0-11.41,0-17.11,0a27.52,27.52,0,0,1-10.66-2.48,30.16,30.16,0,0,1-11-8.16A30.11,30.11,0,0,1,86.09,266,30.22,30.22,0,0,1,99.44,254.4a22.57,22.57,0,0,1,8.59-2.32c6.32-.21,12.64-.19,19-.26h1.52v-1.25c0-7.21,0-21.19,0-28.4,0-.68,16.37,0,16.37,0Z" transform="translate(-81.42 -221.45)"/><path class="b" d="M221.14,222.46h13.11a37.32,37.32,0,0,1,9,1.06,20.66,20.66,0,0,1,7.48,3.45,16.87,16.87,0,0,1,5.07,6.19,20.77,20.77,0,0,1,1.87,9.24,18.86,18.86,0,0,1-1.81,8.48,18.35,18.35,0,0,1-4.91,6.17,21.65,21.65,0,0,1-7.11,3.78,27.91,27.91,0,0,1-8.46,1.28H221.14Zm8.74,31.59h4.53a24.4,24.4,0,0,0,5.63-.62,12,12,0,0,0,4.51-2,9.8,9.8,0,0,0,3-3.75,13.31,13.31,0,0,0,1.09-5.69,11.08,11.08,0,0,0-1.09-5.07,10.1,10.1,0,0,0-2.94-3.55,12.62,12.62,0,0,0-4.34-2.1,19.22,19.22,0,0,0-5.24-.7h-5.15Z" transform="translate(-81.42 -221.45)"/><path class="b" d="M264.49,222.46h26.94v8.07h-18.2v7.39h17.19V246H273.23v8.07h19.21v8.06H264.49Z" transform="translate(-81.42 -221.45)"/><path class="b" d="M319.6,232.15a6.21,6.21,0,0,0-2.88-2,10.29,10.29,0,0,0-3.45-.64,9.06,9.06,0,0,0-2,.22,7.47,7.47,0,0,0-1.9.7A4.25,4.25,0,0,0,308,231.7a3.22,3.22,0,0,0-.56,1.91,3.14,3.14,0,0,0,1.35,2.74,12.3,12.3,0,0,0,3.39,1.62c1.36.45,2.83.9,4.39,1.35a18.18,18.18,0,0,1,4.4,1.9,10.5,10.5,0,0,1,3.39,3.31,10.12,10.12,0,0,1,1.34,5.54,12.74,12.74,0,0,1-1.23,5.77,11.69,11.69,0,0,1-3.33,4.09,14.24,14.24,0,0,1-4.87,2.41,22.49,22.49,0,0,1-13-.39,18.22,18.22,0,0,1-6.16-3.81l6.22-6.84a9.09,9.09,0,0,0,3.39,2.78,9.71,9.71,0,0,0,4.23,1,9.49,9.49,0,0,0,2.15-.26,6.83,6.83,0,0,0,2-.75,4.24,4.24,0,0,0,1.4-1.29,3.18,3.18,0,0,0,.54-1.85,3.35,3.35,0,0,0-1.38-2.83,12.72,12.72,0,0,0-3.44-1.76c-1.38-.48-2.88-1-4.48-1.46a19.82,19.82,0,0,1-4.48-2,10.81,10.81,0,0,1-3.45-3.25,9.3,9.3,0,0,1-1.37-5.32,12,12,0,0,1,1.26-5.6,12.17,12.17,0,0,1,3.36-4,14.86,14.86,0,0,1,4.85-2.44,19.79,19.79,0,0,1,5.65-.81,22.42,22.42,0,0,1,6.5,1,15,15,0,0,1,5.66,3.2Z" transform="translate(-81.42 -221.45)"/><path class="b" d="M332.6,222.46h8.73v39.65H332.6Z" transform="translate(-81.42 -221.45)"/><path class="b" d="M386,259.31a31.48,31.48,0,0,1-8.07,2.92,41.41,41.41,0,0,1-8.57.89,24.38,24.38,0,0,1-8.56-1.45,19.4,19.4,0,0,1-6.78-4.18,18.89,18.89,0,0,1-4.46-6.58,24.19,24.19,0,0,1,0-17.25,19,19,0,0,1,4.46-6.58,19.53,19.53,0,0,1,6.78-4.17,24.38,24.38,0,0,1,8.56-1.46,31.55,31.55,0,0,1,8.77,1.15,17.21,17.21,0,0,1,7,4L379,233.27a12.32,12.32,0,0,0-4-2.8,14.53,14.53,0,0,0-5.61-.95,13,13,0,0,0-5.06.95,11.32,11.32,0,0,0-3.9,2.66,11.73,11.73,0,0,0-2.49,4.06,15.44,15.44,0,0,0,0,10.22,11.7,11.7,0,0,0,2.49,4,11.48,11.48,0,0,0,3.9,2.67,13,13,0,0,0,5.06.95,16.64,16.64,0,0,0,4.93-.65,19.09,19.09,0,0,0,3.31-1.31v-6.44h-7.12v-8.07H386Z" transform="translate(-81.42 -221.45)"/><path class="b" d="M394.43,222.46H406.3L423.16,250h.12V222.46H432v39.65H420.59l-17.31-28.22h-.11v28.22h-8.74Z" transform="translate(-81.42 -221.45)"/></svg>