<svg xmlns="http://www.w3.org/2000/svg" viewBox="0 0 218.4 71.19"><defs><style>.a{fill:none;}.b{fill:#fff;}.c{fill:#77ba53;}.d{fill:gray;}.e{fill:#f0f7ec;}</style></defs><title>Food and Dairy Systems</title><path class="a" d="M443.33,441.46h0c2.3.14,3.34,2.6,5.3,3.34l.15,2.41c-1.59.55-2.92,1.87-4.73,1.75h0c1.81.12,3.14-1.2,4.73-1.74A3.83,3.83,0,0,1,450,447v-2a3.19,3.19,0,0,1-1.37-.21C446.67,444.06,445.63,441.6,443.33,441.46Z" transform="translate(-429.6 -399.98)"/><path class="a" d="M468.6,448.75c-2.87,1.39-4.61,5.45-3.47,8.33.67,1.69,1.8,2,3.52,1.14,3-1.55,2.78-4.52,3.41-6.71C472.15,448.1,471.23,447.48,468.6,448.75Z" transform="translate(-429.6 -399.98)"/><path class="a" d="M483,454.44c-.2,1.45-.48,3.2,1.18,4,1.87.88,3-.46,4-1.88,1.62-2.38,1.89-5.16,2.56-8.35C485.76,449.07,483.53,450.92,483,454.44Z" transform="translate(-429.6 -399.98)"/><path class="a" d="M498.3,418c-2.55-.2-5.1,2.75-5.12,6.21,0,1.87.49,3.65,2.92,3.85s4.73-2.25,4.94-5.67C501.22,419.49,500.38,418.13,498.3,418Z" transform="translate(-429.6 -399.98)"/><path class="a" d="M537.3,422c-1.64.22-3.46,3-3.2,4.91a1.91,1.91,0,0,0,1.8,1.87c1.5-.08,3.14-2.84,3.12-5.05C539,422.58,538.56,421.87,537.3,422Z" transform="translate(-429.6 -399.98)"/><path class="a" d="M513.94,428A3.07,3.07,0,0,0,517,426a32.14,32.14,0,0,0,1.69-4.6c.73-2.92-.55-4.1-3.38-3.28-2.5.73-5,5.72-4.05,8.14A2.55,2.55,0,0,0,513.94,428Z" transform="translate(-429.6 -399.98)"/><path class="a" d="M478.13,428c2.48,0,4.88-3.27,4.86-6.5,0-2.12-.78-3.55-3.13-3.54-2.5,0-4.88,3.23-4.86,5.88S475.77,428,478.13,428Z" transform="translate(-429.6 -399.98)"/><path class="a" d="M561.91,428.86c1.6-.22,3.18-2.94,3.06-5.14,0-1.25-.56-1.81-1.79-1.77-2,.07-3.31,2.06-3.21,4.75C560,428,560.28,429.08,561.91,428.86Z" transform="translate(-429.6 -399.98)"/><path class="a" d="M602.09,448.65c-1.53-1.09-2.76-.42-3.9.67-.59.57-1.17,1.15-1,2,.62.79,1.47.61,2.25.62,1.37,0,2.65-.28,3.27-1.66A1.39,1.39,0,0,0,602.09,448.65Z" transform="translate(-429.6 -399.98)"/><path class="b" d="M643.06,448.17c1.64-.12,3.29-.12,4.94-.17v-2c-.88.2-1.57-.35-2.35-.57-3.45-.94-7.23.22-8.44,2.5s-.1,4.48,3.29,7.27c.77.64,1.69,1.23,1.11,2.4a2.38,2.38,0,0,1-2.48,1.32,12.36,12.36,0,0,1-2.39-.55c-.74-.23-1.34-.12-1.61.6a1.8,1.8,0,0,0,.66,2.19c2.09,1.6,7.09.73,9.11-1.61s1.47-4.54-1.58-7c-.39-.31-.8-.6-1.18-.91-.66-.55-1.27-1.2-1-2.1A2.13,2.13,0,0,1,643.06,448.17Z" transform="translate(-429.6 -399.98)"/><path class="b" d="M629.54,445.27c-3.88.56-7.5,1.41-11.48,0-1.47-.51-3.49,2.05-5.58,0-.58-.59-2,.4-2.19,1.45-.85,4.38-1.58,8.77-2.28,13.16a1.46,1.46,0,0,0,1.15,1.89,2.06,2.06,0,0,0,2.45-1.22,15.68,15.68,0,0,0,.45-2.42c.48-2.09.88-4.21,1.55-6.24.6-1.82,1.76-3.48,4-2.91s1.42,2.74,1.28,4.21c-.2,2.12-1.12,4.15-1,6.36.07,1,0,2,1.37,2.25s1.64-.8,2.11-1.69c.66-1.24.47-2.6.68-3.9.53-3.3,1.25-6.53,5.12-8.1,1.34,1.47,1.79,2.61,1.26,4.34a52.08,52.08,0,0,0-1.37,7.29c-.17,1.08.18,2,1.48,2.1,1,.08,2.09.06,2.34-1.24.71-3.73,1.94-7.37,2-11.2C633,447.07,631.56,445,629.54,445.27Z" transform="translate(-429.6 -399.98)"/><path class="b" d="M476.66,438.07c-1-.1-2-.05-2.4,1.16a4.05,4.05,0,0,0-.19,1.47c.15,3-1,4.23-4.28,4.53-5.34.5-8.79,4.95-8.86,10.21s2.69,7.32,7.91,5.53c.86-.3,1.34-.64,2.47.13,2,1.38,3.32.61,3.55-1.9a106.33,106.33,0,0,1,2-10.66c.55-2.9.85-5.86,1.21-8.79A1.39,1.39,0,0,0,476.66,438.07Zm-4.6,13.44c-.63,2.19-.39,5.16-3.41,6.71-1.72.89-2.85.55-3.52-1.14-1.14-2.88.6-6.94,3.47-8.33C471.23,447.48,472.15,448.1,472.06,451.51Z" transform="translate(-429.6 -399.98)"/><path class="b" d="M511.72,431a47.75,47.75,0,0,1,8.95-.14c1.42-7.16,2.79-13.93,4.11-20.71.21-1.08.63-2.49-1-2.84s-2.49.45-2.84,2c-.38,1.75-.9,3.48-1.43,5.5l-1.9.1a10.78,10.78,0,0,0-10.55,9.77C506.74,428.2,508.73,431.19,511.72,431Zm3.6-12.9c2.83-.82,4.11.36,3.38,3.28A32.14,32.14,0,0,1,517,426a3.07,3.07,0,0,1-3.07,2.05,2.55,2.55,0,0,1-2.67-1.79C510.3,423.8,512.82,418.81,515.32,418.08Z" transform="translate(-429.6 -399.98)"/><path class="b" d="M492.13,445.07a11.33,11.33,0,0,0-13.2,12.28,4.7,4.7,0,0,0,7.19,3.87,22.28,22.28,0,0,0,2.65-2c.19,1.89.93,3,2.86,2.57,1.63-.38,1.27-1.7,1.33-2.81a55,55,0,0,1,1.85-10.19C495.36,446.59,494.45,445.42,492.13,445.07Zm-3.91,11.47c-1,1.42-2.13,2.76-4,1.88-1.66-.78-1.38-2.53-1.18-4,.49-3.52,2.72-5.37,7.74-6.25C490.11,451.38,489.84,454.16,488.22,456.54Z" transform="translate(-429.6 -399.98)"/><path class="b" d="M528.42,447.13c-1.4,2.73-2.64,5.54-4,8.42-1.22-2.45-1.24-4.95-1.63-7.39s-1.68-4-4.69-2.35c.72,3.53,1.14,7.15,2.25,10.55s.81,6.11-2.7,7.91c-2,1-2.17,2.61-.8,4.84,9.64-5,11.3-15.18,16.35-23.23C529.53,445.22,529.43,445.17,528.42,447.13Z" transform="translate(-429.6 -399.98)"/><path class="b" d="M563.22,447.43l-3.81,8.19a16.84,16.84,0,0,1-1.46-5.84,11.13,11.13,0,0,0-.57-2.89,2.28,2.28,0,0,0-3.09-1.67c-1.69.46-1.07,1.63-.79,2.79.7,2.88,1,5.87,2,8.67,1.08,3.35.59,5.82-2.68,7.51-2,1-2.46,2.53-.85,4.85,9.58-5,11.29-15.12,16.22-23.16C565.23,444.36,564.09,445.57,563.22,447.43Z" transform="translate(-429.6 -399.98)"/><path class="b" d="M599.39,445.41a10.33,10.33,0,0,0-6.58,6.24c-1.35,3.24-.82,6.83,1.35,8.7s7.35,2.14,9.87.45a1.49,1.49,0,0,0,.7-1.68,1.28,1.28,0,0,0-1.46-1,7.06,7.06,0,0,0-1.93.35c-2.5.81-4-.34-5.49-2.74,2.42-1.26,4.65-.56,6.71-1.42,3.46-1.44,5-3.17,4.18-5.59A5.83,5.83,0,0,0,599.39,445.41Zm3.36,4.91c-.62,1.38-1.9,1.68-3.27,1.66-.78,0-1.63.17-2.25-.62-.21-.89.37-1.47,1-2,1.14-1.09,2.37-1.76,3.9-.67A1.39,1.39,0,0,1,602.75,450.32Z" transform="translate(-429.6 -399.98)"/><path class="b" d="M471,425.61c.61,3.52,2.91,5.44,6.54,5.46a9.37,9.37,0,0,0,9.42-9.93c-.22-2.91-2-5.42-4.35-6.06C476.48,413.37,470,419.29,471,425.61Zm8.82-7.63c2.35,0,3.13,1.42,3.13,3.54,0,3.23-2.38,6.49-4.86,6.5s-3.13-1.43-3.13-4.16S477.36,418,479.86,418Z" transform="translate(-429.6 -399.98)"/><path class="b" d="M504.65,418.56a5.9,5.9,0,0,0-5-3.63c-4.77-.45-7.89,1.54-9.86,6.51-2.15,5.47.75,9.72,6.6,9.63S507.08,423.73,504.65,418.56ZM501,422.37c-.21,3.42-2.38,5.88-4.94,5.67s-2.93-2-2.92-3.85c0-3.46,2.57-6.41,5.12-6.21C500.38,418.13,501.22,419.49,501,422.37Z" transform="translate(-429.6 -399.98)"/><path class="b" d="M461.1,430.5c2.08.72,3.63,1.06,4.1-1.73s1.27-5.46,1.71-8.22c.24-1.47.58-2.19,2.24-2.65,2.41-.67,2.53-1.67.3-2.81-1.71-.86-1.16-1.52-.7-2.64.54-1.31,1.6-1.48,2.8-1.65,1.62-.23,1.66-1.48,1.33-2.65s-1.53-1.2-2.48-1c-2.37.49-4.44,1.62-5.34,4-1.1,2.91-4.17,5.38-2.12,9.09.24.43-.27,1.25-.39,1.9C462.07,424.86,461.6,427.6,461.1,430.5Z" transform="translate(-429.6 -399.98)"/><path class="b" d="M590.27,445.09c-.51-.39-1.14-.53-1.25-1.31-.15-1,.36-2.59-1.45-2.58a2.56,2.56,0,0,0-2.65,2.44,1.55,1.55,0,0,1-1.21,1.39c-2.06.55-2.07,2.1-1.3,3.49,1.16,2.12.62,4.17.23,6.26-.18,1-.46,1.91-.51,2.1-.2,2.26.41,3.37,1.55,4.22,1.46,1.1,3.3,1.4,4.58.3s.48-2.27-.64-3.66c-2.09-2.61-.55-7.06,2.57-8.95C592.36,447.48,592.42,446.72,590.27,445.09Z" transform="translate(-429.6 -399.98)"/><path class="b" d="M548.51,445.14a8.26,8.26,0,0,0-5.29.8c-3.7,2.06-4.05,5.08-.92,7.93,1.09,1,2.79,1.21,3.45,3a3,3,0,0,1-1.94,1.76c-1.16.57-2.22.1-3.33-.34-.91-.37-1.54.2-2,1-.53,1.07.19,1.43,1,1.84,2.46,1.3,7,.71,8.84-1.18,2.14-2.17,2-4.83-.35-6.89-1.21-1.05-2.82-1.63-3.76-3.13,1-1.33,2.16-2.18,3.83-1.51,1.28.52,1.88,0,2-1.22A1.7,1.7,0,0,0,548.51,445.14Z" transform="translate(-429.6 -399.98)"/><path class="b" d="M578,445.26c-2.21-1.11-7,.51-8.41,2.81s-.67,4.2,2.53,6.49c1.1.79,2.46,1.35,1.62,3-.71,1.41-2,1.58-3.4,1.12-1.44-.83-2.77-.64-3,1.07-.24,1.52,1.47,1.6,2.44,1.94,2,.7,3.91.05,5.71-.87,3.85-2,4.29-5,1.09-7.77a22.13,22.13,0,0,0-2.06-1.35c-.69-.47-1.48-1-1.26-1.93a2.11,2.11,0,0,1,2.2-1.63,7.66,7.66,0,0,1,1.92.41c1.12.32,1.48-.34,1.63-1.24A1.79,1.79,0,0,0,578,445.26Z" transform="translate(-429.6 -399.98)"/><path class="b" d="M562.6,430.63c1.43-.64,2.88,1.4,4.09-.31l3-15.69c-1.34-.8-2.42-.69-2.67.49-.65,3-2.67,4-5.35,4.62a6.43,6.43,0,0,0-3.78,3.07,6.71,6.71,0,0,0-.46,6.64C558.45,431.75,560.76,431.45,562.6,430.63Zm.58-8.68c1.23,0,1.84.52,1.79,1.77.12,2.2-1.46,4.92-3.06,5.14S560,428,560,426.7C559.87,424,561.21,422,563.18,422Z" transform="translate(-429.6 -399.98)"/><path class="b" d="M511.32,447.57c-.43-.95-.25-2.49-1.89-2.41a2.19,2.19,0,0,0-2.24,2.21c-.12,4.15-1.18,8.12-2.05,12.14-.21.94-.17,2.07,1.19,2.28,1.2.19,2.35.18,2.7-1.37.3-1.29.74-2.54.92-3.83.47-3.24,1.42-6.14,4.78-7.49,1.68-.68,1.81-2.07,1.93-3.78C514,444.69,513.09,446.86,511.32,447.57Z" transform="translate(-429.6 -399.98)"/><path class="b" d="M542.07,421.46c.21-1.66-.66-2.31-2.3-2.43a8.6,8.6,0,0,0-8.69,6.52c-.73,4,.6,5.58,4.61,5.48,1.6,0,3.21-.18,5.06-.29C541.21,427.56,541.68,424.51,542.07,421.46Zm-6.17,7.35a1.91,1.91,0,0,1-1.8-1.87c-.26-1.89,1.56-4.69,3.2-4.91,1.26-.16,1.7.55,1.72,1.73C539,426,537.4,428.73,535.9,428.81Z" transform="translate(-429.6 -399.98)"/><path class="b" d="M552,424c.17,1.56-.64,2.91-.88,4.37-.14.91-.44,2.11.91,2.46s1.74-.4,2-1.55c.45-1.77,1.11-3.49.95-5.07.12-5-.82-5.69-5.55-4.23-.41.13-.68.77-1.26.24-2.21-2-3-.31-3,1.49-.07,2.37-1,4.53-1.15,6.85,0,1-.26,2.13,1.18,2.29s1.69-.77,1.73-1.87a12.65,12.65,0,0,1,1.81-6.12,1.94,1.94,0,0,1,2.19-.82C552,422.31,551.92,423.22,552,424Z" transform="translate(-429.6 -399.98)"/><path class="b" d="M501.71,445.23a2,2,0,0,0-2.46,1.89c-.33,4.13-1.56,8.08-2.18,12.15-.18,1.17-.17,2.42,1.49,2.58,1.29.12,2.2-.2,2.46-1.75.65-3.89,1.44-7.76,2.08-11.17C503,447.21,503.69,445.58,501.71,445.23Z" transform="translate(-429.6 -399.98)"/><path class="b" d="M450,426.08c-2.62-5.37-2.84-11.21-2.94-17.05,0-2.45-.11-4.84,1.71-6.8.74-.43,1.42-1,.71-1.85a2,2,0,0,0-1.37-.36c-4.74,0-9.48-.08-14.21,0-2,0-2.47.84-.69,2.2.2,2,2,3.3,2,5.47-.06,5.66.13,11.28-1.93,16.75-1.4,3.72-2.87,7.58-3.24,11.48-1,10.47-.24,20.95,1,31.39a3.35,3.35,0,0,0,3.14,3.25,43.43,43.43,0,0,0,15.87-.26,3.24,3.24,0,0,0,2.92-3.42c.12-3,.47-6,.62-9C454.15,447.12,455,436.29,450,426.08Z" transform="translate(-429.6 -399.98)"/><path class="c" d="M444.05,449h0" transform="translate(-429.6 -399.98)"/><path class="d" d="M446.72,438c-3.1.05-6.29.14-9.39.19a3.22,3.22,0,0,0-3.17,3.23v17.34a3.24,3.24,0,0,0,3.2,3.23c3.15,0,6.25,0,9.49-.13a3.29,3.29,0,0,0,3.15-3.26V441.26A3.23,3.23,0,0,0,446.72,438Z" transform="translate(-429.6 -399.98)"/><path class="c" d="M443.33,441.46" transform="translate(-429.6 -399.98)"/><path class="c" d="M440.16,457c-1,1.45-2.34,2.52-4.16,1.14-1.49-1.13-1.47-3.2.41-4.67,2.28-1.79,4.48-3.85,7.53-4.36l0-.1" transform="translate(-429.6 -399.98)"/><path class="c" d="M444,449" transform="translate(-429.6 -399.98)"/><path class="b" d="M448.69,445.78a1.84,1.84,0,0,0-.85-1.39c-1.49-1-2.54-2.81-4.51-2.93h0c-1.42,2.65,1.34,4.92.72,7.5h0c1.38.09,2.49-.66,3.64-1.26a1.85,1.85,0,0,0,1-1.75Z" transform="translate(-429.6 -399.98)"/><path class="e" d="M444,449l0,.1.1,0h0a.2.2,0,0,1,0-.07H444Z" transform="translate(-429.6 -399.98)"/><path class="b" d="M436,458.09c1.82,1.38,3.2.31,4.16-1.14a23,23,0,0,0,3.78-7.89c-3.05.51-5.25,2.57-7.53,4.36C434.53,454.89,434.51,457,436,458.09Z" transform="translate(-429.6 -399.98)"/></svg>