<svg xmlns="http://www.w3.org/2000/svg" viewBox="0 0 827.05 122.23"><defs><style>.a{fill:none;}.b{fill:#fff;}</style></defs><title>Jackson</title><path class="a" d="M679.3,383.86c4.13-4.62,12-4,14.92,1.19a29.26,29.26,0,0,1,1.4,3.45h22.25c-1.27-11-8.09-19.4-18.67-22.72a46.6,46.6,0,0,0-22.07-1.15c-11.33,1.95-18.73,8.73-22.35,19.48a41.15,41.15,0,0,0-.93,21.57c2.23,10.84,8.56,18.33,19.38,21.52,6,1.77,12.28,1.86,18.54,1.44,11.41-.76,19.24-6.57,23.86-16.9a27,27,0,0,0,2.27-8.7H697.46c-1.86,0-1.8,0-2.54,1.79a17.32,17.32,0,0,1-1.83,3.49,9.17,9.17,0,0,1-10.83,3,10.34,10.34,0,0,1-5.68-6.62,28.11,28.11,0,0,1-.8-12.1A15.12,15.12,0,0,1,679.3,383.86Z" transform="translate(-145.2 -307.2)"/><path class="b" d="M442.32,307.2c-1.67,3.22-3.32,6.45-5,9.65q-29.19,54.9-58.36,109.81a1.67,1.67,0,0,1-1.74,1q-40.43,0-80.86,0H295c.71-1.38,1.34-2.61,2-3.83l60.87-114.44c.39-.74.8-1.47,1.2-2.21Z" transform="translate(-145.2 -307.2)"/><path class="b" d="M339.36,307.2c-2.73,5.19-5.45,10.39-8.21,15.57q-27.6,51.94-55.2,103.88a1.59,1.59,0,0,1-1.61,1.05q-40.66,0-81.33,0h-1c.33-.63.58-1.15.86-1.67L255.36,308.4a12.5,12.5,0,0,0,.48-1.2Z" transform="translate(-145.2 -307.2)"/><path class="b" d="M236.88,307.2l-27.51,51.69q-18,33.89-36,67.79a1.67,1.67,0,0,1-1.76,1c-11.77-.1-22.82-9.13-25.65-21-.28-1.16-.49-2.33-.74-3.5V331.44a2.14,2.14,0,0,0,.22-.52q2.93-17,19.3-22.56c1.53-.52,3.14-.78,4.72-1.16Z" transform="translate(-145.2 -307.2)"/><path class="b" d="M465.12,307.2c1.88.48,3.81.83,5.64,1.45a27.36,27.36,0,0,1,18.66,26v65.63A27.42,27.42,0,0,1,462,427.68H397.84c.18-.42.3-.74.46-1l44-82.72q9.75-18.36,19.48-36.72Z" transform="translate(-145.2 -307.2)"/><path class="b" d="M169.44,307.2c-1.58.38-3.19.64-4.72,1.16q-16.35,5.52-19.3,22.56a2.14,2.14,0,0,1-.22.52" transform="translate(-145.2 -307.2)"/><path class="b" d="M721.24,341.62h21.23v42.21l.25.1c1.77-2,3.53-4.06,5.29-6.1,3.49-4.06,7-8.13,10.49-12.17a1.81,1.81,0,0,1,1.18-.59q12.84,0,25.68,0c.15,0,.29,0,.67.06-1.51,1.62-2.88,3.1-4.26,4.57q-7.77,8.25-15.55,16.49a1.39,1.39,0,0,0-.24,1.95q10.28,19.1,20.49,38.23c.2.38.39.77.67,1.33h-1.42c-7.32,0-14.64,0-22,0a1.92,1.92,0,0,1-2-1.4Q756.42,415.21,751,404.1c-.16-.31-.34-.61-.6-1.09l-3.58,3.77c-1.18,1.25-2.33,2.53-3.54,3.75a2.71,2.71,0,0,0-.85,2.12c0,4.52,0,9,0,13.55v1.39H721.24Z" transform="translate(-145.2 -307.2)"/><path class="b" d="M628.41,420.22c-.69.66-1.49,1.44-2.3,2.19-5.19,4.77-11.5,6.34-18.33,6.43a27.89,27.89,0,0,1-9.67-1.4A16.05,16.05,0,0,1,587.22,411c.37-6.66,3.41-11.44,9.66-14a30.27,30.27,0,0,1,4.42-1.5c5.86-1.4,11.76-2.64,17.6-4.11,2.62-.66,5.14-1.73,7.71-2.57.59-.2.86-.49.79-1.12s0-1.12-.11-1.67c-.6-4-2.25-5.37-6.3-5.25a20.94,20.94,0,0,0-2.5.24,6.72,6.72,0,0,0-5.64,4.58c-.35.93-.66,1.88-1,2.87H589.42c1.29-6.22,2.45-12.41,6.55-17.53.15-.18.32-.35.49-.52,3-3.28,7-4.75,11.19-5.53a67.19,67.19,0,0,1,26.43.44c6.54,1.4,10.95,5.45,13,11.95a32.91,32.91,0,0,1,1.66,10.23c-.07,8.36,0,16.72,0,25.07,0,5,.26,10,2.59,14.6a1.47,1.47,0,0,1,0,.41l-1.06.06c-6.07,0-12.15,0-18.23,0a1.3,1.3,0,0,1-1.5-1C629.85,424.57,629.14,422.43,628.41,420.22Zm-1-19.17c-3,.87-6,1.64-8.93,2.56a42.88,42.88,0,0,0-6.34,2.41,4.47,4.47,0,0,0-2.41,4.93,4.53,4.53,0,0,0,3.73,4,11.84,11.84,0,0,0,4.15.22c4-.53,7.26-2.23,9-6.08C627.7,406.55,627.43,403.8,627.41,401.05Z" transform="translate(-145.2 -307.2)"/><path class="b" d="M541.86,391.59c.26,2.81.4,5.61.79,8.37a29,29,0,0,0,1.39,5.42,5,5,0,0,0,4.5,3.6c2.66.24,5-.27,6.68-2.6a13.21,13.21,0,0,0,2-6.56c.21-2.1.28-4.23.28-6.34q0-25.32,0-50.63v-1.53h24.37v1.3c0,16.08.06,32.15,0,48.23,0,6.15-.32,12.33-1.93,18.31-2.62,9.71-8.88,16.16-18.53,18.73a41.69,41.69,0,0,1-26.27-1.26,23.33,23.33,0,0,1-13.73-13.15c-1.57-3.92-1.95-8.14-2.26-12.33-.24-3.14-.32-6.29-.48-9.56Z" transform="translate(-145.2 -307.2)"/><path class="b" d="M934.38,427.62H913.11V365.13H933v9.8l.24.09.78-1c3-3.8,6.34-7.24,11.09-8.82a23,23,0,0,1,15.63,0c6.24,2.32,9.45,7.25,10.75,13.53a36.24,36.24,0,0,1,.75,7.12c.07,13.4,0,26.79,0,40.19v1.54H951.12v-1.35c0-10.52,0-21,0-31.55a35,35,0,0,0-.47-5.6c-.48-2.84-2-5-4.91-5.75a7.86,7.86,0,0,0-8.3,2.35c-2.24,2.51-2.8,5.67-2.85,8.83-.15,10.48-.14,20.95-.19,31.43Z" transform="translate(-145.2 -307.2)"/><path class="b" d="M910.11,396.2c-.23,7.22-1.77,14-6,20a28,28,0,0,1-18,11.77,38.82,38.82,0,0,1-20.13-.72c-11.62-3.8-18.28-12.07-20.43-23.92A35.21,35.21,0,0,1,848.28,381c4.7-9.6,12.44-15.19,23.05-16.7a40.5,40.5,0,0,1,17.45,1.1c11.25,3.38,17.71,11.23,20.27,22.46A81.84,81.84,0,0,1,910.11,396.2Zm-22.33,0-.31-.05a23.81,23.81,0,0,0-1.39-8.82c-1.19-2.94-3-5.3-6.23-6.18-4.1-1.13-8.07.72-10.27,4.7a17.71,17.71,0,0,0-2,7.58c-.25,4.05-.2,8.07,1.22,11.94,1.65,4.5,5.34,7.05,9.72,6.55,4.15-.47,6.62-3.16,7.72-6.92A77.8,77.8,0,0,0,887.78,396.16Z" transform="translate(-145.2 -307.2)"/><path class="b" d="M841.83,382.94c-.48,0-.83.07-1.18.07-6.72,0-13.44,0-20.16,0a1.24,1.24,0,0,1-1.44-1,5.87,5.87,0,0,0-3.28-3.63A10.39,10.39,0,0,0,808,378a4.33,4.33,0,0,0-3,4.08,3.43,3.43,0,0,0,2.79,3.47,77.74,77.74,0,0,0,8.65,1.82c5.38.78,10.79,1.42,15.88,3.43,5.84,2.3,9.81,6.39,11.31,12.58,2,8.42-2.26,17.41-10.2,21.69a32.52,32.52,0,0,1-12.73,3.52,61.64,61.64,0,0,1-18.48-.89c-6.37-1.37-11.76-4.3-15.49-9.82a17.17,17.17,0,0,1-3-10.24h22.23c.58,1.33,1.11,2.7,1.76,4,2.35,4.82,9.8,4.47,12.48,1.64,1.6-1.69,2-5.19.53-7a3.6,3.6,0,0,0-1.89-1.13c-3.69-.87-7.42-1.57-11.1-2.45a84.18,84.18,0,0,1-10.85-2.93A16.31,16.31,0,0,1,786,385.7c-1.37-11.57,6.21-18.56,15.58-20.64,6.39-1.42,12.85-1.34,19.33-.83,3.44.27,6.87.72,9.9,2.52,5.3,3.16,9.27,7.43,10.67,13.66A24,24,0,0,1,841.83,382.94Z" transform="translate(-145.2 -307.2)"/><path class="b" d="M717.9,403a27,27,0,0,1-2.27,8.7c-4.62,10.33-12.45,16.14-23.86,16.9-6.26.42-12.49.33-18.54-1.44-10.82-3.19-17.15-10.68-19.38-21.52a41.15,41.15,0,0,1,.93-21.57c3.62-10.75,11-17.53,22.35-19.48a46.6,46.6,0,0,1,22.07,1.15c10.58,3.32,17.4,11.69,18.67,22.72H695.62a29.26,29.26,0,0,0-1.4-3.45c-3-5.21-10.79-5.81-14.92-1.19a15.12,15.12,0,0,0-3.52,8.75,28.11,28.11,0,0,0,.8,12.1,10.34,10.34,0,0,0,5.68,6.62,9.17,9.17,0,0,0,10.83-3,17.32,17.32,0,0,0,1.83-3.49c.74-1.77.68-1.79,2.54-1.79H717.9Z" transform="translate(-145.2 -307.2)"/></svg>