<svg xmlns="http://www.w3.org/2000/svg" viewBox="0 0 636.01 424.02"><defs><style>.a{fill:#fff;}.b{fill:#404040;}</style></defs><title>Royal Society</title><path class="a" d="M887.51,422.89q-.15-96.75-.08-193.49c0-1.72-.19-3.43-.33-5.94-2.93,2.08-5.08,3.57-7.2,5.12-31.73,23.23-64.27,45.24-98.41,64.81-35.59,20.4-72.11,38.78-112.12,49.12-12.74,3.29-25.63,5.68-39.27,5.62,7.63-37.24,8.62-43.34,4.72-70.81-6.61-46.53-26.82-86.2-62.68-117.11-33.39-28.78-73.08-42.11-116.49-43.86C392.31,113.81,340,138,298.73,185.58c-27.06,31.25-41.59,68.2-45.89,109.24-4.26,40.72,1.36,79.75,20.69,116.2,22.89,43.16,58.44,72.86,101.73,94,46.42,22.62,96,32.47,147.16,34.73,47.18,2.08,93.79-2.86,139.82-13.3,79.63-18,152.9-50.82,221.08-95.44C886.56,428.85,887.52,426.58,887.51,422.89ZM476.94,236.32c0-.95,1.78-1.88,2.74-2.82l1.47,1.29v36.72c6.59.59,12.86,1.14,19.11,1.8a22.13,22.13,0,0,1,0,2.48H476.82C476.82,262.47,476.76,249.39,476.94,236.32ZM467.44,314c7.17,0,14.42-.09,21.65.13.8,0,1.54,1.85,3.11,3.88H471.73v14.79H487c0,4.08,0,4.08-5.69,4.09H472V351.8h19.38l1.08,1.24c-.93,1-1.84,2.81-2.8,2.85-7.29.24-14.59.13-22.2.13Zm41.86,69.06c-3.05,3.12-15.25,3.41-19,0ZM317.08,234c4.37,0,8.49-.07,12.61,0,8.14.16,12,2.61,13.5,8.46,1.74,6.74-.64,11.54-7.82,15.53,6.92,17.1,17.1,30.67,36.74,34.52-14.32-.05-25.61-5.85-33.23-18.18a59.53,59.53,0,0,1-5.47-10.06c-2.18-5.83-6.15-6.69-12.21-5,0,4.34-.1,8.93,0,13.52.09,3.06-1.16,3.83-4.16,2.78Zm1.53,115c4.64,1.26,8.58,3.17,12.46,3.07,2.41-.07,5.62-2.71,6.88-5.06,1.69-3.14-.48-6.11-3.53-7.79s-6-2.85-9-4.34c-6.67-3.34-9-7.77-7.31-13.51,1.48-4.93,7.6-8.86,13.57-8.07,3.5.46,6.86,2,11.06,3.23l-2.59,4.3a8,8,0,0,0-1.82-.84c-3.8-.59-7.67-1.74-11.38-1.37-1.72.17-4.18,3.23-4.42,5.2s1.49,4.78,3.21,6.05c2.9,2.12,6.53,3.24,9.79,4.9,6.31,3.21,8.76,8,7.14,13.71-1.54,5.4-7.47,9.3-13.8,8.22-4.1-.7-8-2.62-12.74-4.26Zm31.2,49.71H337.16v32.85h-7.11V398.88H317.23v-6.17h32.58Zm10.6,32.75V392.74H383.5v6H368v9.83h12.16v6.69H367.91v10.16h16.67c.11,2.19.2,3.92.31,6.08Zm12.72-74.6c-12.21,0-21.37-9.51-21.33-22.14,0-12.35,9.15-21.39,21.48-21.29a21.09,21.09,0,0,1,21.27,21.69C394.39,347.3,385,356.87,373.13,356.87Zm.69-80c-11.89-.2-21-9.77-21-22.07s9.17-21.41,21.45-21.36,21.36,9.25,21.31,21.56S385.91,277.07,373.82,276.87Zm26.38-43.61c1.82,1.27,4.21,2.17,5.36,3.9,3.39,5.07,6.28,10.47,9.65,16.25,3.42-5.83,6.39-11.3,9.79-16.47,1.07-1.63,3.31-2.5,5.66-3.06-6.2,13.48-17.48,24.81-12.22,41.88h-6.23c5.16-16.88-6.23-28.29-13.16-41.21ZM407,320.58c6.8-8.08,20.58-9.89,29-3.61,1,.74,1.08,2.68.93,4.53-6.16-3.42-12.24-5.35-18.53-3.16a20,20,0,0,0-8.58,6.32c-4.86,6.17-4,16.27,1.23,22.19,6.39,7.25,13.94,7.47,26.09.72,2.44,1.59,2.38,3,0,4.84-8.18,6.43-21.57,5.71-28.92-1.69C400.51,342.87,399.92,329,407,320.58Zm26.6,105.78c-.46-3.66-2.58-5.06-6.21-4.52a14.34,14.34,0,0,1-4,0c-3.5-.46-5.8.61-6.23,4.4-.64,5.58-4,6.6-9.43,5.07,4.4-12.4,8.58-24.46,13.05-36.4.44-1.17,2.66-2.29,4.08-2.32,1.67,0,4.45.73,4.88,1.86,4.61,12.23,8.86,24.59,13.23,37C437.87,432.71,434.33,432,433.63,426.36ZM439,267.29a17.15,17.15,0,0,1-2,5.58c-1,1.53-2.61,2.62-3.95,3.9l-1.56-1.24c1.59-4.44,3.14-8.89,4.76-13.32,3.15-8.56,6.27-17.13,9.58-25.63a4.33,4.33,0,0,1,3-2.43,4.07,4.07,0,0,1,3.23,2c4.95,13,9.7,26.08,14.52,39.18-3,1.29-4.48.64-5.61-2.21-4.12-10.39-4.23-10.19-15.61-10.37C441.65,262.73,439.7,263.73,439,267.29ZM451,314.58c2.53-1.1,4.22-1.11,4.2,2.56q-.12,17.91,0,35.82c0,3.25-1.5,3.47-4.2,2.63Zm28.47,92.13c-.6,6.76-5,11.19-11.52,11.46-2.79.12-5.58,0-9.1,0v13.42h-6.64V392.86c6,0,12-.55,17.84.14C476.51,393.76,480.12,399.66,479.5,406.71Zm28.11,19.6c-.47-3.72-2.67-5-6.24-4.47a16,16,0,0,1-4.48,0c-3.26-.48-5.07.88-5.55,4-.82,5.41-3.79,7.27-9.5,5.42,4.36-12.33,8.63-24.69,13.26-36.9.42-1.11,3.23-1.85,4.89-1.79,1.42.06,3.59,1.21,4,2.4,4.47,11.95,8.65,24,13,36.36C511.72,432.83,508.32,431.86,507.61,426.31Zm12-108.28v37.36c-3.94,1.51-4.6-.1-4.57-3.09.09-11.15,0-22.31,0-34H500.74L499.67,317c.95-1,1.88-2.82,2.84-2.84,10.46-.21,20.92-.13,31.76-.13.7,6.16-3.5,3.65-5.62,3.95C525.9,318.33,523.06,318,519.66,318ZM544.14,426.5c-.61-1.71-1.81-3.2-2.45-4.9-1.48-3.94-4.1-5.33-8.73-3.85v13.79h-7.54V393c6.41,0,12.77-.74,18.89.19,8.13,1.23,11.1,12.66,5.44,19.2-1,1.12-2.15,2.05-3.24,3.08,2.88,5.31,5.7,10.51,8.56,15.8C549.57,433,546,431.7,544.14,426.5Zm-.79-112,1.44-1.34c1.78,1.37,4.08,2.41,5.26,4.18,3.3,5,6.14,10.26,9.18,15.44,6.33-5.39,6.11-16.27,15.66-18.59-6.08,13.35-17.56,24.46-12.13,41.3l-6.49.6C561.77,338.91,550.4,327.44,543.35,314.52ZM588.09,426.3c-.57-3.69-2.6-5-6.17-4.44-4,.6-9-2.09-10.54,4.82-1.26,5.79-1.77,5.68-9,4.66,1.76-5.07,3.48-10,5.21-15,2.47-7.06,4.83-14.17,7.56-21.13a5.4,5.4,0,0,1,3.93-2.6c1.68-.13,4.63.51,5,1.57,4.65,12.23,8.92,24.59,13.29,36.95C591.92,433.12,588.89,431.52,588.09,426.3Zm49.87,5c-4.51,1.35-7.57.5-10.07-3.74-4.31-7.27-9.23-14.19-14.59-22.32v26.28h-7V393c4.87-1.52,7.75-.06,10.18,4.06,4.27,7.21,9.13,14.07,14.36,22v-26.2H638Zm45.79.78L675,430.31c-9.09,4.44-19.31,2.12-24.82-6.44s-4-20.7,3.63-27.27,20.28-6.44,28.05.53c-1,1.58-2.09,3.21-2.58,3.95-5.18-.79-9.66-2.12-14.09-2-5.37.17-9.06,4.21-10.16,9.45-1.28,6.09.86,12,5.4,15s10.38,3,14.48-.29c1.37-1.09,1.85-3.29,3-5.51l-6.53-.95v-5.45h12.38Zm16.84-.54h-6.83V392.85h6.83Z" transform="translate(-251.5 -116.17)"/><path class="b" d="M630.79,419.05c-5.23-7.95-10.09-14.81-14.36-22-2.43-4.12-5.31-5.58-10.18-4.06v38.59h7V405.28c5.36,8.13,10.28,15.05,14.59,22.32,2.5,4.24,5.56,5.09,10.07,3.74V392.85h-7.17Z" transform="translate(-251.5 -116.17)"/><path class="b" d="M549.75,412.39c5.66-6.54,2.69-18-5.44-19.2-6.12-.93-12.48-.19-18.89-.19v38.54H533V417.75c4.63-1.48,7.25-.09,8.73,3.85.64,1.7,1.84,3.19,2.45,4.9,1.84,5.2,5.43,6.48,10.93,4.77-2.86-5.29-5.68-10.49-8.56-15.8C547.6,414.44,548.78,413.51,549.75,412.39ZM544,407.75c-2.75,2-6.43,2.78-10.81,4.46v-14.1c3.86,1,7.59,1.43,10.56,3.15C544.79,401.88,545,407,544,407.75Z" transform="translate(-251.5 -116.17)"/><path class="b" d="M671.37,416.81l6.53.95c-1.16,2.22-1.64,4.42-3,5.51-4.1,3.27-10,3.18-14.48.29s-6.68-8.92-5.4-15c1.1-5.24,4.79-9.28,10.16-9.45,4.43-.14,8.91,1.19,14.09,2,.49-.74,1.54-2.37,2.58-3.95-7.77-7-20.43-7.12-28.05-.53s-9.2,18.64-3.63,27.27,15.73,10.88,24.82,6.44l8.77,1.81V411.36H671.37Z" transform="translate(-251.5 -116.17)"/><path class="b" d="M367.91,425.39V415.23h12.21v-6.69H368v-9.83H383.5v-6H360.41v38.73h24.48c-.11-2.16-.2-3.89-.31-6.08Z" transform="translate(-251.5 -116.17)"/><path class="b" d="M500,392.6c-1.66-.06-4.47.68-4.89,1.79-4.63,12.21-8.9,24.57-13.26,36.9,5.71,1.85,8.68,0,9.5-5.42.48-3.15,2.29-4.51,5.55-4a16,16,0,0,0,4.48,0c3.57-.49,5.77.75,6.24,4.47.71,5.55,4.11,6.52,9.44,5.05C512.68,419,508.5,407,504,395,503.58,393.81,501.41,392.66,500,392.6Zm-5.33,22.92c1.6-4.87,3.06-9.31,4.76-14.51,1.67,5.18,3.08,9.53,4.68,14.51Z" transform="translate(-251.5 -116.17)"/><path class="b" d="M424.91,392.6c-1.42,0-3.64,1.15-4.08,2.32-4.47,11.94-8.65,24-13.05,36.4,5.43,1.53,8.79.51,9.43-5.07.43-3.79,2.73-4.86,6.23-4.4a14.34,14.34,0,0,0,4,0c3.63-.54,5.75.86,6.21,4.52.7,5.66,4.24,6.35,9.39,5.06-4.37-12.37-8.62-24.73-13.23-37C429.36,393.33,426.58,392.57,424.91,392.6Zm-4.22,22.89c1.59-4.89,3-9.35,4.71-14.52,1.68,5.19,3.09,9.57,4.69,14.52Z" transform="translate(-251.5 -116.17)"/><path class="b" d="M579.08,392.6a5.4,5.4,0,0,0-3.93,2.6c-2.73,7-5.09,14.07-7.56,21.13-1.73,5-3.45,9.94-5.21,15,7.23,1,7.74,1.13,9-4.66,1.51-6.91,6.57-4.22,10.54-4.82,3.57-.54,5.6.75,6.17,4.44.8,5.22,3.83,6.82,9.31,4.82-4.37-12.36-8.64-24.72-13.29-36.95C583.71,393.11,580.76,392.47,579.08,392.6Zm-4,22.93c1.53-4.63,2.94-8.89,4.34-13.15l1,.24c1.29,4.17,2.59,8.33,4,12.91Z" transform="translate(-251.5 -116.17)"/><path class="b" d="M321.24,272.78c-.14-4.59,0-9.18,0-13.52,6.06-1.69,10-.83,12.21,5a59.53,59.53,0,0,0,5.47,10.06c7.62,12.33,18.91,18.13,33.23,18.18-19.64-3.85-29.82-17.42-36.74-34.52,7.18-4,9.56-8.79,7.82-15.53-1.51-5.85-5.36-8.3-13.5-8.46-4.12-.08-8.24,0-12.61,0v41.58C320.08,276.61,321.33,275.84,321.24,272.78Zm.3-35c5.86,1.1,12.58-2.33,16.22,4.07,1.33,2.34,1.15,6.93-.34,9.2-3.83,5.87-10.2,2.45-15.88,3.51Z" transform="translate(-251.5 -116.17)"/><path class="b" d="M470.08,393c-5.86-.69-11.87-.14-17.84-.14v38.75h6.64V418.19c3.52,0,6.31.1,9.1,0,6.52-.27,10.92-4.7,11.52-11.46C480.12,399.66,476.51,393.76,470.08,393Zm.66,16.06c-2.55,4.39-7.2,2.69-11.45,2.78V399.06c4.24.1,8.9-1.79,11.46,2.65A8.67,8.67,0,0,1,470.74,409.06Z" transform="translate(-251.5 -116.17)"/><path class="b" d="M374.25,233.44c-12.28-.05-21.47,9.1-21.45,21.36s9.13,21.87,21,22.07c12.09.2,21.69-9.46,21.74-21.87S386.51,233.49,374.25,233.44Zm.27,39.32c-9.1.32-17.14-7.93-17.3-17.74A17,17,0,0,1,374,237.58,16.77,16.77,0,0,1,391,254.29C391.19,264.29,383.93,272.44,374.52,272.76Z" transform="translate(-251.5 -116.17)"/><path class="b" d="M373.28,313.44c-12.33-.1-21.45,8.94-21.48,21.29,0,12.63,9.12,22.14,21.33,22.14,11.83,0,21.26-9.57,21.42-21.74A21.09,21.09,0,0,0,373.28,313.44ZM373,352.78c-9.1,0-16.68-8-16.81-17.64s7.2-17.45,16.66-17.56A17,17,0,0,1,390,334.74C390,344.54,382.28,352.8,373,352.78Z" transform="translate(-251.5 -116.17)"/><path class="b" d="M317.23,398.88h12.82v32.69h7.11V398.72h12.65v-6H317.23Z" transform="translate(-251.5 -116.17)"/><path class="b" d="M460.85,273.15c1.13,2.85,2.6,3.5,5.61,2.21-4.82-13.1-9.57-26.18-14.52-39.18a4.07,4.07,0,0,0-3.23-2,4.33,4.33,0,0,0-3,2.43c-3.31,8.5-6.43,17.07-9.58,25.63-1.62,4.43-3.17,8.88-4.76,13.32l1.56,1.24c1.34-1.28,3-2.37,3.95-3.9a17.15,17.15,0,0,0,2-5.58c.74-3.56,2.69-4.56,6.28-4.51C456.62,263,456.73,262.76,460.85,273.15ZM442,258.84,448.92,240l6.8,18.86Z" transform="translate(-251.5 -116.17)"/><path class="b" d="M489.64,355.89c1,0,1.87-1.85,2.8-2.85l-1.08-1.24H472V336.88h9.32c5.67,0,5.67,0,5.69-4.09H471.73V318H492.2c-1.57-2-2.31-3.85-3.11-3.88-7.23-.22-14.48-.13-21.65-.13v42C475.05,356,482.35,356.13,489.64,355.89Z" transform="translate(-251.5 -116.17)"/><path class="b" d="M437.23,352.41c2.35-1.85,2.41-3.25,0-4.84-12.15,6.75-19.7,6.53-26.09-.72-5.21-5.92-6.09-16-1.23-22.19a20,20,0,0,1,8.58-6.32c6.29-2.19,12.37-.26,18.53,3.16.15-1.85.06-3.79-.93-4.53-8.45-6.28-22.23-4.47-29,3.61-7.11,8.43-6.52,22.29,1.28,30.14C415.66,358.12,429.05,358.84,437.23,352.41Z" transform="translate(-251.5 -116.17)"/><path class="b" d="M342.69,348.49c1.62-5.71-.83-10.5-7.14-13.71-3.26-1.66-6.89-2.78-9.79-4.9-1.72-1.27-3.44-4.13-3.21-6.05s2.7-5,4.42-5.2c3.71-.37,7.58.78,11.38,1.37a8,8,0,0,1,1.82.84l2.59-4.3c-4.2-1.27-7.56-2.77-11.06-3.23-6-.79-12.09,3.14-13.57,8.07-1.73,5.74.64,10.17,7.31,13.51,3,1.49,6.07,2.74,9,4.34s5.22,4.65,3.53,7.79c-1.26,2.35-4.47,5-6.88,5.06-3.88.1-7.82-1.81-12.46-3.07l-2.46,3.44c4.74,1.64,8.64,3.56,12.74,4.26C335.22,357.79,341.15,353.89,342.69,348.49Z" transform="translate(-251.5 -116.17)"/><path class="b" d="M528.65,317.93c2.12-.3,6.32,2.21,5.62-3.95-10.84,0-21.3-.08-31.76.13-1,0-1.89,1.85-2.84,2.84l1.07,1.36h14.39c0,11.68,0,22.84,0,34,0,3,.63,4.6,4.57,3.09V318C523.06,318,525.9,318.33,528.65,317.93Z" transform="translate(-251.5 -116.17)"/><path class="b" d="M562.76,355.51c-5.43-16.84,6-27.95,12.13-41.3-9.55,2.32-9.33,13.2-15.66,18.59-3-5.18-5.88-10.46-9.18-15.44-1.18-1.77-3.48-2.81-5.26-4.18l-1.44,1.34c7,12.92,18.42,24.39,12.92,41.59Z" transform="translate(-251.5 -116.17)"/><path class="b" d="M412.21,275.76h6.23c-5.26-17.07,6-28.4,12.22-41.88-2.35.56-4.59,1.43-5.66,3.06-3.4,5.17-6.37,10.64-9.79,16.47-3.37-5.78-6.26-11.18-9.65-16.25-1.15-1.73-3.54-2.63-5.36-3.9l-1.15,1.29C406,247.47,417.37,258.88,412.21,275.76Z" transform="translate(-251.5 -116.17)"/><path class="b" d="M693.76,431.58h6.83V392.85h-6.83Z" transform="translate(-251.5 -116.17)"/><path class="b" d="M500.27,275.79a22.13,22.13,0,0,0,0-2.48c-6.25-.66-12.52-1.21-19.11-1.8V234.79l-1.47-1.29c-1,.94-2.73,1.87-2.74,2.82-.18,13.07-.12,26.15-.12,39.47Z" transform="translate(-251.5 -116.17)"/><path class="b" d="M455.23,353q-.12-17.91,0-35.82c0-3.67-1.67-3.66-4.2-2.56v41C453.73,356.43,455.25,356.21,455.23,353Z" transform="translate(-251.5 -116.17)"/><path class="b" d="M509.3,383.05h-19C494.05,386.46,506.25,386.17,509.3,383.05Z" transform="translate(-251.5 -116.17)"/><path class="a" d="M543.71,401.26c-3-1.72-6.7-2.11-10.56-3.15v14.1c4.38-1.68,8.06-2.44,10.81-4.46C545,407,544.79,401.88,543.71,401.26Z" transform="translate(-251.5 -116.17)"/><path class="a" d="M494.66,415.52h9.44c-1.6-5-3-9.33-4.68-14.51C497.72,406.21,496.26,410.65,494.66,415.52Z" transform="translate(-251.5 -116.17)"/><path class="a" d="M420.69,415.49h9.4c-1.6-4.95-3-9.33-4.69-14.52C423.72,406.14,422.28,410.6,420.69,415.49Z" transform="translate(-251.5 -116.17)"/><path class="a" d="M579.47,402.38c-1.4,4.26-2.81,8.52-4.34,13.15h9.34c-1.41-4.58-2.71-8.74-4-12.91Z" transform="translate(-251.5 -116.17)"/><path class="a" d="M337.42,251.09c1.49-2.27,1.67-6.86.34-9.2-3.64-6.4-10.36-3-16.22-4.07V254.6C327.22,253.54,333.59,257,337.42,251.09Z" transform="translate(-251.5 -116.17)"/><path class="a" d="M459.29,399.06v12.78c4.25-.09,8.9,1.61,11.45-2.78a8.67,8.67,0,0,0,0-7.35C468.19,397.27,463.53,399.16,459.29,399.06Z" transform="translate(-251.5 -116.17)"/><path class="a" d="M374,237.58A17,17,0,0,0,357.22,255c.16,9.81,8.2,18.06,17.3,17.74,9.41-.32,16.67-8.47,16.45-18.47A16.77,16.77,0,0,0,374,237.58Z" transform="translate(-251.5 -116.17)"/><path class="a" d="M372.87,317.58c-9.46.11-16.8,7.84-16.66,17.56s7.71,17.62,16.81,17.64c9.26,0,17-8.24,17-18A17,17,0,0,0,372.87,317.58Z" transform="translate(-251.5 -116.17)"/><path class="a" d="M442,258.84h13.69L448.92,240Z" transform="translate(-251.5 -116.17)"/></svg>