<svg xmlns="http://www.w3.org/2000/svg" viewBox="0 0 211.28 290.15"><defs><style>.a{fill:white;}.b{fill:red;}.c{fill:black;}</style></defs><title>Color Logo NoBorder</title><path class="a" d="M228.25,162.21c0,3.57,0,7.14,0,10.71-.06,6.74-.08,13.49-.27,20.23a37.46,37.46,0,0,1-.94,6.95,77.72,77.72,0,0,1-2.59,9.7c-2.09,5.78-5.59,10.75-9.59,15.38-7.85,9.07-17.37,16.07-27.68,22.05A227.3,227.3,0,0,1,160.29,260c-7.62,3.18-15.24,6.37-22.81,9.66-4.46,1.94-8.82,4.1-13.23,6.15a1.17,1.17,0,0,1-.84.11c-6.89-3.18-13.76-6.42-20.67-9.56-2.28-1-4.69-1.79-7-2.75-2.7-1.11-5.38-2.3-8.06-3.47-4.88-2.12-9.79-4.15-14.61-6.4A148.45,148.45,0,0,1,49.33,240.1,94.14,94.14,0,0,1,32,224.3c-4.64-5.5-8.36-11.56-10.24-18.58a18,18,0,0,1-.65-4.58q0-87.93-.06-175.87c0-1.32.24-1.7,1.65-1.7q50.88.07,101.75,0H225.92c2,0,2,0,2.1,2m.36,91.08q0,10,0,20.1m-98.56,36.38h.4a4.11,4.11,0,0,0,.06-.94c-.21-1.27.32-1.67,1.57-1.57s2.46,0,3.68,0c1,.06,1.28-.26,1.3-1.27,0-2.13-.43-4.31.53-6.38a4,4,0,0,0,.29-1.77c0-.89.08-1.4,1.19-1.39s1.29.38,1.24,1.33a6,6,0,0,0,.3,1.77,4.42,4.42,0,0,0,.47.9,4.23,4.23,0,0,0,.32-1.1c0-3,0-6,0-9.07a10.81,10.81,0,0,1,1-5.48c.44-.75.76-1,1.43-.26.94,1.06,2,2,2.87,3.12a3.52,3.52,0,0,1,.81,2c.07,4.53,0,9.07,0,13.6,0,1.3-.35,3.12.34,3.75s2.5.19,3.81.29c1,.07,1.3-.25,1.28-1.26-.07-3.16,0-6.33,0-9.49,0-.7-.17-1.43,1-1.42,1,0,1.62.11,1.73,1.27.31,3.18.76,6.35,1,9.54.09,1.32.84,1.49,1.75,1.34.26,0,.52-.85.56-1.32.07-.77-.09-1.47,1.11-1.49s1.68.28,1.49,1.5c-.07.46,0,.95,0,1.41-.06.74.12,1.13,1,1.14a1.24,1.24,0,0,1,.86.85c.08,2,.07,4,0,5.95,0,.32-.41.62-.63.93s-.68.7-.69,1.06c-.07,2.12-.06,4.25,0,6.38,0,.41.33,1.16.53,1.17a11.39,11.39,0,0,0,2.25-.28,14.52,14.52,0,0,0-.58-1.77c-.12-.27-.55-.39-.72-.65a3.24,3.24,0,0,1-.58-1.35c-.09-1.08,0-2.17,0-3.26,0-.85.29-1.16,1.16-1.14,2.31.05,4.63,0,6.94,0,1.06,0,2.3-.44,3,.91.07.13.52.12.78.09,2-.26,4.09-.51,6.12-.85.73-.12,1,.05,1.18.76s-.06,1-.81,1.15c-1.49.23-3,.53-4.45.85s-3.13.6-2.75,2.82c0,.2-.15.43-.24.65-.64,1.7-.37,2.12,1.39,2.11,14.24-.07,28.5.45,42.71-1,.88-.09,1.07.13,1,.93-.05,1.89-.06,3.78,0,5.67,0,.3.17.82.34.86a2.4,2.4,0,0,0,2.4-2.08c-.11-5-.3-10.07-.3-15.11,0-5.47.24-10.95.26-16.42s-.08-11.13-.11-16.69c0-4.44,0-8.88,0-13.32.07-6.56.24-13.12.28-19.69,0-4.63-.11-9.25-.13-13.88,0-4.11,0-8.21,0-12.32,0-2.68-.18-5.36-.16-8s.26-5.45.26-8.17c0-4.57-.12-9.13-.12-13.7,0-5.71.13-11.43.12-17.14a28,28,0,0,0-.54-5.19c-.1-.51-.88-1-1.45-1.29a3.24,3.24,0,0,0-1.4-.07H30.6c-2.75,0-3,.27-3.05,3.1,0,5.56,0,11.12,0,16.68q0,27.34,0,54.69c0,9.06.14,18.12.2,27.18,0,4.24.05,8.48,0,12.71s-.28,8.57-.29,12.86c0,3.63.27,7.25.28,10.88,0,2.92-.26,5.84-.28,8.76,0,4.52.07,9,.09,13.56A2.87,2.87,0,0,0,30,195a41.4,41.4,0,0,0,4.22.32c.89,0,1.19-.31.83-1.21-.89-2.28-1.65-4.61-2.62-6.86-1.13-2.65-2.44-5.23-2-8.25.07-.55-.11-1.3.78-1.12.74.15,2-.72,2.13.8s.92,1.58,2,1.82c7.88,1.72,15.79,3.31,23.59,5.33,5.5,1.43,10.93,2.81,16.67,2.42,1.51-.1,1.8-.46,1.29-1.9a17.84,17.84,0,0,0-.71-2,1.9,1.9,0,0,0-.93-1c-1.84-.54-3.7-1-5.56-1.45-.6-.15-1.42,0-1.27-1.07s.84-.6,1.41-.62c2.61-.07,5.26,1.69,7.84-.15,0,0,.09,0,.14,0,2.93,0,5.86,0,8.79,0,.31,0,.88.39.87.56-.17,1.9.89,4.1-1.4,5.51-.34.21-.36,1.1-.33,1.66,0,.15.77.35,1.19.36,1.9.06,1.9,0,1.9-1.87a5.3,5.3,0,0,0,0-.85c-.18-1.12.26-1.47,1.38-1.43,2,.07,2,0,1.37-1.84-.12-.35-.05-.78-.22-1.1a4.73,4.73,0,0,0-.92-1.19c-1.41-1.34-3.35-1-5-1.58-.69-.24-2.21.38-1.9-1.14s1.47-.5,2.23-.41c2.27.28,4.55,1.24,6.74-.31.1-.07.28,0,.42,0,2.93,0,5.86,0,8.79,0,.32,0,.91.38.9.54-.18,2,.94,4.34-1.54,5.74-.26.15-.26.77-.39,1.17a6.14,6.14,0,0,0,1.65.1,1.19,1.19,0,0,0,.69-.86c.45-3.83.87-7.66,1.22-11.5.07-.81.49-2-1.06-2.09-.11,0-.29-.37-.29-.58,0-1.09,0-2.17,0-3.26,0-.25.31-.7.49-.7.92,0,1-.59.88-1.25-.2-1.68,1-1.14,1.87-1.22s1.75-.1,1.52,1.25c-.11.66,0,1.19.9,1.19s.91-.59.88-1.22a17.79,17.79,0,0,1,.86-7.11c.15-.42.68-.7,1-1,.24.42.64.83.68,1.27.19,2.39.28,4.79.45,7.18,0,.28.34.54.53.81a2.9,2.9,0,0,0,.3-.84,39.56,39.56,0,0,0,0-4c-.1-1.26.24-1.89,1.6-1.65.91.16,1.27-.2,1.21-1.17-.08-1.22,0-2.46,0-3.68,0-.63.1-1.25-.89-1.21-.16,0-.48-.63-.48-1s.32-.94.5-.94c1.14,0,.86-.78.86-1.38,0-5.62,0-11.24,0-16.86,0-2.7-.52-2.25,2.43-2.35,1,0,1.2.35,1.17,1.25-.06,1.93-.05,3.87,0,5.81,0,.34.41.95.62.94,1.23,0,1.17.8,1.25,1.62.35,3.65.72,7.3,1.08,11,.31-1.23.43-2.46.73-3.64a28.09,28.09,0,0,1,1.34-4,1.47,1.47,0,0,1,1.22-.67c.36,0,.79.59,1,1,.63,1.63,1.07,3.33,1.75,4.93a18.47,18.47,0,0,1,1.26,7.73c-.09,5.29,0,10.58,0,15.87Q129.82,172.45,129.82,173.13Zm-86.25,48c0-.24,0-.42,0-.6,0-2,.26-2.29,2.16-2.81a20.47,20.47,0,0,0,4-1.48c1.94-1,3.74-1.2,5.51.29a3.65,3.65,0,0,0,3.44.78,1.86,1.86,0,0,1,1-.07c2.8.93,5.48.06,8.2-.46a8.13,8.13,0,0,1,3.91,0c3,1,6.07.57,9.1.9a4.52,4.52,0,0,0,2.21-.35,8,8,0,0,1,6.06-.05,17.52,17.52,0,0,0,11.36.33c2.22-.71,4.48-1.2,7-.26,2.77,1,5.73,2,8.84,1.35,2.39-.53,4.75-1.21,7.16-1.6a7.53,7.53,0,0,1,3.68.24c4.65,1.73,9.23,2.47,13.94.22a8.66,8.66,0,0,1,6.51-.37,20.17,20.17,0,0,0,11.41.48,9.67,9.67,0,0,1,5.42.12c1.56.58,3.1,1.15,4.7,1.64,2.6.79,5,.77,7.25-.89a3.85,3.85,0,0,1,4.65-.16c2.49,1.89,5.25,1.81,8.08,1.8a5.89,5.89,0,0,0,4.19-1.4c1.77-1.62,3.72-1.48,5.81-.71a11.43,11.43,0,0,0,3.34.74c2.2.11,2.5.14,2.78,2.23.19,1.4.71,1,1.27.41,2.12-2.08,4.29-4.12,6.29-6.31a36.81,36.81,0,0,0,6.43-9c.68-1.45.78-1.4-.77-1.4H32.57c-1.74,0-2.31.7-1.52,2.27a42.55,42.55,0,0,0,3.33,5.44A50.43,50.43,0,0,0,38,216.7C39.57,218.47,41,220.4,43.57,221.11Zm108.9,29.55v-.29a14.78,14.78,0,0,1,2.33.51c1.41.55,1.55,1.72.47,2.74a6.86,6.86,0,0,0-.86,1.28,4.73,4.73,0,0,0,1.66.07,50,50,0,0,0,5-1.95c2.19-1,4.31-2.16,6.45-3.26.2-.1.35-.32.55-.44l6.26-3.73c.11-.07.28-.05.4-.1a11.46,11.46,0,0,0,1.65-.71c1.23-.75,2.44-1.55,3.64-2.36s2.4-1.61,3.5-2.53c.47-.39,1.08-1.26.93-1.59a2.67,2.67,0,0,0-1.66-1.07,14.63,14.63,0,0,0-2.94-.36,9.79,9.79,0,0,1-5.66-1.84,4.91,4.91,0,0,0-5.72-.11,12.08,12.08,0,0,1-3.09,1.37c-4.62,1.12-9.25,2.32-14,.85-2.43-.75-5.13-.66-7.18-2.59-1.78-1.68-3.36-1.74-5.3-.16a11.38,11.38,0,0,1-5.66,2.36c-1.91.29-3.81.62-5.72.93-5.57.9-10.62-.58-15.33-3.45-1.48-.9-2.8-1.33-4.46-.36a18.74,18.74,0,0,1-11,2.85c-1.88-.15-3.76-.29-5.61-.61a17.26,17.26,0,0,1-8.21-3.7,2.12,2.12,0,0,0-2.56-.32c-5.27,2.41-10.62,4.6-16.54,4.8-1,0-.88.41-.56,1.13,1.06,2.39,3.47,3.21,5.38,4.52,2.17,1.49,4.65,2.52,6.94,3.83,2.13,1.23,4.18,2.58,6.28,3.86a10.07,10.07,0,0,0,1.16.5c.72.32,1.43.64,2.14,1,2.36,1.13,4.69,2.32,7.08,3.37.45.2,1.13-.15,1.71-.25-.29-.4-.61-.79-.86-1.22s-.76-1.08-.68-1.54.68-1,1.17-1.19a4,4,0,0,1,1.79-.31c1.46,0,2.91.27,4.37.27,2.87,0,5.74-.14,8.61-.17,3.92,0,7.83,0,11.75,0Z" transform="translate(-18.73 -23.56)"/><path class="b" d="M43.69,265.65c3.66-.08,6.6,1.91,9.52,3.85A135.24,135.24,0,0,0,94,288.09a115.44,115.44,0,0,0,27.16,4.1,124.86,124.86,0,0,0,17-1.19,119,119,0,0,0,24.41-5.72,137.85,137.85,0,0,0,29.83-14.55,50.81,50.81,0,0,1,10.66-4.87c1.21-.43,1.23.13,1.14,1-.41,4.22-.84,8.45-1.2,12.67-.13,1.52-.53,3,.18,4.59.52,1.2,0,2.86-.16,4.32-.16,1.92-.34,3.85-.58,5.76a1.31,1.31,0,0,1-.6.93c-2.12.85-4.3,1.55-6.4,2.44a192,192,0,0,1-40,12.17c-8.46,1.57-17.06,2.31-25.59,3.53-6.32.91-12.56.16-18.83-.48a200.3,200.3,0,0,1-42.85-9.15c-6.64-2.2-13.08-5-19.61-7.52-.57-.22-1.17-.65-1.71-.59-1.51.15-1.57-.89-1.65-1.85-.25-2.81-.79-5.67-.56-8.45C45.17,278.67,43.59,272.25,43.69,265.65Zm24.69,25.49c1.83.86,3.51,1.6,5.12,2.46a2,2,0,0,1,.81,1.27c.2,1.16.13,2.37.39,3.51.1.42.85.68,1.3,1a3.55,3.55,0,0,0,.39-1.1c0-2.4-.08-4.81-.11-7.21a8.4,8.4,0,0,0,0-2.11c-.14-.5-.76-.85-1.17-1.27a3.53,3.53,0,0,0-.59,1.07,14.93,14.93,0,0,0-.13,2.54c0,.94-.17,1.35-1.18.83-1.38-.71-2.82-1.3-4.18-2.05a1.59,1.59,0,0,1-.64-1.22c0-1.17.36-2.35.3-3.51,0-.47-.74-.9-1.15-1.34-.21.34-.57.68-.61,1-.24,2.49-.44,5-.58,7.47a5.55,5.55,0,0,0,.26,2.37c.2.49.94.75,1.43,1.12a6.3,6.3,0,0,0,.28-1.22C68.4,293.61,68.38,292.44,68.38,291.14Zm114.39,1.33c-.23-1.71-.47-3.77-.81-5.81-.06-.35-.58-.62-.88-.92-.31.43-.88.85-.88,1.28,0,1,.28,2.05.36,3.09a1.27,1.27,0,0,1-.41,1c-1.48.72-3,1.36-4.54,1.94-.2.07-.79-.33-.85-.59a21,21,0,0,1-.36-2.81c-.08-.92-.62-1.07-1.21-.59a2,2,0,0,0-.52,1.38c-.09,3-.12,5.91-.17,8.87,0,.31-.05.62-.08.93.4-.06.9,0,1.18-.22a2.07,2.07,0,0,0,.69-1.15c.22-1.11.29-2.25.5-3.35a1.57,1.57,0,0,1,.63-1c1.49-.7,3-1.28,4.55-1.93.59-.25.9-.17.84.54-.11,1.13-.23,2.25-.32,3.38a5,5,0,0,0,.06.82c.31-.06.72,0,.92-.21a2.63,2.63,0,0,0,.83-1.19C182.5,294.91,182.57,293.87,182.76,292.47Zm-14.76.08,1.4-.7c-.33-.31-.66-.87-1-.88a9.17,9.17,0,0,0-9.61,9.86,2.45,2.45,0,0,0,2.25,2.51c2.83.29,5.25-.82,7.52-2.34a1.15,1.15,0,0,0,.44-.7c.21-1.35.41-2.7.53-4.06,0-.21-.45-.67-.58-.64-1.4.4-2.79.86-4.16,1.37-.2.08-.26.54-.38.82a2.14,2.14,0,0,0,.81.17c.6-.13,1.16-.4,1.76-.52.21,0,.65.16.7.33a3.24,3.24,0,0,1-1.88,3.66,9.31,9.31,0,0,1-2.17.62c-1.94.27-3-.67-3-2.6A6.61,6.61,0,0,1,168,292.55Zm-44.36,10.3c2-1.95,1.51-4.11-1.1-4.82a35.06,35.06,0,0,0-4.19-.49c-.94-.13-1.28.19-1.26,1.13,0,1.88,0,3.77,0,5.65,0,2.91,0,3,2.9,3.13a13,13,0,0,0,3.9-.26,2.57,2.57,0,0,0,1.64-1.63c.11-.64-.56-1.45-1-2.14C124.41,303.19,124,303.08,123.65,302.85Zm27.87-4.46c-.32-1.46-1.06-2.36-2.46-2.39s-2.79.39-4.19.44-1.7.78-1.72,2.09c0,2.35-.32,4.7-.46,7a4.92,4.92,0,0,0,.22,1.19c.47-.28,1.16-.45,1.36-.87a5.59,5.59,0,0,0,.4-2.2c0-1.11.67-1.44,1.63-1.48a1.9,1.9,0,0,1,2.12,1.26,6.6,6.6,0,0,0,.76,1.81,1.55,1.55,0,0,0,1.26.29c.23,0,.61-.65.53-.84a11,11,0,0,0-1.49-2.84c-.51-.61-.33-.67.12-1.11A23.26,23.26,0,0,0,151.52,298.39Zm-89.73-5.26c1.63,0,2.37-.53,2.19-1.84a7.85,7.85,0,0,0-1.26-3.2,30.23,30.23,0,0,0-2.55-2.63,8.39,8.39,0,0,1-1.46-2.21,1.7,1.7,0,0,1,.27-1.53,1.63,1.63,0,0,1,1.51-.19,21.14,21.14,0,0,1,2.4,1.68,8.23,8.23,0,0,0,1,.51c0-.44.11-1.06-.13-1.3a13,13,0,0,0-2.49-2c-1.58-1-3-.93-3.82-.12s-.88,2.66,0,4.12a4.42,4.42,0,0,0,.67.9c.79.81,1.65,1.56,2.41,2.39a8.4,8.4,0,0,1,1.48,2,1.73,1.73,0,0,1-.15,1.55,1.58,1.58,0,0,1-1.5.23c-1.23-.66-2.34-1.52-3.52-2.28a9,9,0,0,0-1-.5c.07.39,0,.92.23,1.16A10.37,10.37,0,0,0,61.79,293.13Zm19.69.35c0-.34,0-.53,0-.71-.15-1.26.33-1.46,1.43-1a19.87,19.87,0,0,0,2.94,1A3.33,3.33,0,0,0,87,292.7c-.24-.34-.41-.86-.73-1-1.79-.71-3.63-1.32-5.44-2-.71-.26-1.09-.1-1.08.72.06,3.06.07,6.12.22,9.18a1.81,1.81,0,0,0,1,1.28c1.72.62,3.49,1.1,5.26,1.59a4.17,4.17,0,0,0,1.14,0c-.29-.3-.53-.74-.89-.87-1.32-.49-2.7-.83-4-1.32a1.48,1.48,0,0,1-.77-.93,19.1,19.1,0,0,1-.23-2.25c-.08-.7.22-.81.82-.61,1,.34,2,.68,3,1a2.86,2.86,0,0,0,1-.08c-.21-.31-.36-.76-.66-.91a11,11,0,0,0-2.52-.91C81.72,295.31,81.1,294.7,81.48,293.48Zm50.23,14,1.41-.09a10.07,10.07,0,0,0,1.41-.06,2.47,2.47,0,0,0,.75-.47c-.25-.13-.49-.38-.74-.38-.89,0-1.79,0-2.69.11-1.77.11-1.67.12-1.71-1.68,0-1.29.49-1.64,1.66-1.56a13.52,13.52,0,0,0,2.54-.12c.23,0,.41-.4.61-.61-.24-.15-.47-.43-.71-.44-.7,0-1.41,0-2.12,0-1.84,0-1.76,0-1.83-1.84,0-1.23.46-1.55,1.56-1.52a17.33,17.33,0,0,0,3-.16c.34-.05.63-.49.94-.75-.32-.18-.64-.51-1-.5-1.74.06-3.48.21-5.23.31-.78,0-1,.43-1,1.19,0,1.79,0,3.59-.08,5.38C128.34,307.71,128.32,307.71,131.71,307.47Zm57.07-13.68c1.27-.26,1.62-.49,1.52-1.91-.18-2.62-.58-5.22-.81-7.84a1.69,1.69,0,0,1,.57-1.27c.59-.45,1.36-.64,2-1,.24-.15.34-.55.5-.84a3.08,3.08,0,0,0-1.06-.18,4.91,4.91,0,0,0-1.14.53c-2.07,1-4.16,2-6.21,3-.28.14-.39.62-.58.94a3,3,0,0,0,1.06.08,6.57,6.57,0,0,0,1.79-.81c1-.68,1.31-.28,1.42.7Zm-84.9,7.51c.06,1,.07,2.4.26,3.8a1.57,1.57,0,0,0,.9,1.12c1.66.33,3.35.52,5,.71.24,0,.52-.23.78-.36-.25-.16-.48-.43-.75-.47-.89-.13-1.78-.18-2.68-.25-1.14-.09-1.71-.52-1.65-1.83a65.7,65.7,0,0,0-.12-6.79c0-.4-.71-.75-1.09-1.13-.23.36-.62.71-.65,1.09C103.82,298.4,103.88,299.63,103.88,301.29Zm-7-2.15h0a33,33,0,0,0-.05-3.81c0-.4-.73-.73-1.12-1.09-.21.33-.61.67-.61,1,0,2.78.1,5.56.28,8.33a1.68,1.68,0,0,0,1,1.2c1.64.4,3.33.62,5,.87.24,0,.53-.17.79-.27-.23-.2-.43-.51-.69-.57-1.15-.25-2.33-.35-3.46-.67a1.58,1.58,0,0,1-.95-1.06C96.89,301.79,96.89,300.46,96.83,299.15Zm59.76-1.43-.12,0c0-.75-.05-1.5-.11-2.25,0-.53.1-1.22-.84-1.1-.78.1-.88.55-.91,1.28-.13,2.81-.38,5.61-.57,8.42a5.75,5.75,0,0,0,.09,1,3.93,3.93,0,0,0,1.29-.4c.25-.19.32-.67.37-1C156.07,301.62,156.33,299.67,156.59,297.72Zm-63.93-4.27a7.9,7.9,0,0,0-1.54-1.15c-.21-.08-.75.22-.88.49-.44.84-.78,1.74-1.14,2.63a6.74,6.74,0,0,0-.21.74c.35.09.87.36,1,.23C90.78,295.54,91.58,294.61,92.66,293.45Z" transform="translate(-18.73 -23.56)"/><path class="b" d="M207.81,259.17c0-3.3-.08-6.25.07-9.19a2.17,2.17,0,0,1,1.59-1.37c6.32-.1,12.64-.07,19,0a1.47,1.47,0,0,1,1.55,1.64q0,10.19,0,20.38c0,1.16-.72,1.66-1.84,1.66-2.45,0-4.91,0-7.36,0-1,0-1.08-.43-1-1.2q.52-4.49,1-9c.17-1.59.27-3.19.48-4.78.09-.7-.09-.94-.79-.93-2.69,0-5.38-.09-8.06.06a6.71,6.71,0,0,0-2.67,1.12A15.61,15.61,0,0,0,207.81,259.17Z" transform="translate(-18.73 -23.56)"/><path class="b" d="M41,259c-3-3.17-6.55-2.71-10-2.66h-.71c-3,0-2.95,0-2.55,3.08.51,3.92.86,7.87,1.31,11.8.11,1-.13,1.34-1.18,1.31-2.45-.07-4.91-.06-7.36,0a1.51,1.51,0,0,1-1.75-1.7q0-10.12,0-20.25a1.52,1.52,0,0,1,1.68-1.66h19a1.5,1.5,0,0,1,1.6,1.61C41.06,253.28,41,256,41,259Z" transform="translate(-18.73 -23.56)"/><path class="b" d="M196.77,266.51c0-2,0-3.77,0-5.49,0-1.29.75-1.9,2.08-1.91,2.6,0,5.27-.38,7.77.11,3.17.62,6.2-.5,9.3-.11.85.11,1.14.26,1.06,1.13-.42,4.36-.8,8.72-1.21,13.08-.26,2.76-.57,5.52-.79,8.29-.07.84-.33,1.15-1.19,1.13-2,0-4-.06-5.95,0-1,0-1-.32-.93-1.17.56-5.58,1-11.17,1.58-16.76.06-.62.19-1.14-.74-1.07-2.26.15-4.52.35-6.78.35a3.75,3.75,0,0,0-3.15,1.48A9.85,9.85,0,0,1,196.77,266.51Z" transform="translate(-18.73 -23.56)"/><path class="b" d="M51.67,266.43c-1.51-2.76-4.09-2.36-6.5-2.47-1.32-.06-2.64-.1-4-.19-.69,0-1,0-.94.89.47,4.69.88,9.38,1.32,14.07.11,1.22.32,2.43.37,3.65a1.07,1.07,0,0,1-.72.76c-2.12.06-4.25.08-6.36,0a1.44,1.44,0,0,1-1-1c-.37-3.17-.64-6.36-.94-9.54-.35-3.75-.76-7.49-1-11.24,0-.7-.86-2.06.53-2.15a63.64,63.64,0,0,1,6.59.26c1.54.06,3.07.13,4.61.12,1.93,0,3.86-.08,5.79-.16S52,260,52,261.78c0,1.45,0,2.91,0,4.36Z" transform="translate(-18.73 -23.56)"/><path class="b" d="M129.82,173.13q0-.68,0-1.36c0-5.29,0-10.58,0-15.87a18.47,18.47,0,0,0-1.26-7.73c-.68-1.6-1.12-3.3-1.75-4.93-.16-.42-.59-1-1-1a1.47,1.47,0,0,0-1.22.67,28.09,28.09,0,0,0-1.34,4c-.3,1.18-.42,2.41-.73,3.64-.36-3.65-.73-7.3-1.08-11-.08-.82,0-1.64-1.25-1.62-.21,0-.61-.61-.62-.94-.06-1.94-.07-3.87,0-5.81,0-.9-.19-1.28-1.17-1.25-2.95.09-2.42-.35-2.43,2.35,0,5.62,0,11.24,0,16.86,0,.6.28,1.39-.86,1.38-.17,0-.5.61-.5.94s.32,1,.48,1c1,0,.89.58.89,1.21,0,1.23-.06,2.46,0,3.68.06,1-.31,1.32-1.21,1.17-1.37-.24-1.7.39-1.6,1.65a39.56,39.56,0,0,1,0,4,2.9,2.9,0,0,1-.3.84c-.18-.27-.51-.53-.53-.81-.17-2.39-.26-4.79-.45-7.18,0-.44-.44-.84-.68-1.27-.35.35-.87.63-1,1a17.79,17.79,0,0,0-.86,7.11c0,.63.1,1.22-.88,1.22s-1-.53-.9-1.19c.23-1.35-.61-1.34-1.52-1.25s-2.07-.46-1.87,1.22c.08.66,0,1.23-.88,1.25-.18,0-.48.45-.49.7-.05,1.08,0,2.17,0,3.26,0,.2.18.57.29.58,1.55.1,1.14,1.28,1.06,2.09-.35,3.84-.78,7.67-1.22,11.5a1.19,1.19,0,0,1-.69.86,6.14,6.14,0,0,1-1.65-.1c.12-.4.12-1,.39-1.17,2.48-1.4,1.36-3.75,1.54-5.74,0-.16-.58-.54-.9-.54-2.93,0-5.86,0-8.79,0-.14,0-.32,0-.42,0-2.19,1.54-4.47.58-6.74.31-.76-.09-1.94-1-2.23.41s1.21.9,1.9,1.14c1.65.57,3.6.24,5,1.58a4.73,4.73,0,0,1,.92,1.19c.17.32.1.75.22,1.1.65,1.85.66,1.91-1.37,1.84-1.12,0-1.57.31-1.38,1.43a5.3,5.3,0,0,1,0,.85c0,1.91,0,1.93-1.9,1.87-.42,0-1.18-.21-1.19-.36,0-.56,0-1.45.33-1.66,2.29-1.41,1.23-3.62,1.4-5.51,0-.17-.56-.55-.87-.56-2.93,0-5.86,0-8.79,0,0,0-.11,0-.14,0-2.58,1.84-5.23.08-7.84.15-.57,0-1.26-.38-1.41.62s.67.91,1.27,1.07c1.86.47,3.73.91,5.56,1.45a1.9,1.9,0,0,1,.93,1,17.84,17.84,0,0,1,.71,2c.51,1.44.21,1.8-1.29,1.9-5.74.39-11.17-1-16.67-2.42-7.8-2-15.71-3.61-23.59-5.33-1.1-.24-1.92-.44-2-1.82s-1.38-.65-2.13-.8c-.9-.18-.71.57-.78,1.12-.4,3,.9,5.6,2,8.25,1,2.25,1.72,4.58,2.62,6.86.35.9.05,1.26-.83,1.21A41.4,41.4,0,0,1,30,195,2.87,2.87,0,0,1,27.54,192c0-4.52-.12-9-.09-13.56,0-2.92.29-5.84.28-8.76,0-3.63-.28-7.26-.28-10.88,0-4.29.24-8.57.29-12.86s0-8.47,0-12.71c-.06-9.06-.19-18.12-.2-27.18q0-27.34,0-54.69c0-5.56,0-11.12,0-16.68,0-2.83.3-3.1,3.05-3.1H218.38a3.24,3.24,0,0,1,1.4.07c.57.3,1.35.77,1.45,1.29a28,28,0,0,1,.54,5.19c0,5.71-.11,11.43-.12,17.14,0,4.57.13,9.13.12,13.7,0,2.72-.24,5.44-.26,8.17s.14,5.36.16,8c0,4.11,0,8.21,0,12.32,0,4.63.16,9.25.13,13.88,0,6.56-.21,13.12-.28,19.69,0,4.44,0,8.88,0,13.32,0,5.56.14,11.13.11,16.69s-.26,10.95-.26,16.42c0,5,.19,10.07.3,15.11a2.4,2.4,0,0,1-2.4,2.08c-.17,0-.34-.56-.34-.86,0-1.89,0-3.78,0-5.67,0-.81-.17-1-1-.93-14.21,1.48-28.47,1-42.71,1-1.77,0-2-.41-1.39-2.11.08-.22.27-.45.24-.65-.37-2.22,1.24-2.49,2.75-2.82s3-.62,4.45-.85c.75-.12.94-.45.81-1.15s-.45-.88-1.18-.76c-2,.34-4.08.59-6.12.85-.26,0-.72,0-.78-.09-.7-1.35-1.94-.89-3-.91-2.31,0-4.63,0-6.94,0-.87,0-1.2.28-1.16,1.14,0,1.09,0,2.18,0,3.26a3.24,3.24,0,0,0,.58,1.35c.17.26.59.38.72.65a14.52,14.52,0,0,1,.58,1.77,11.39,11.39,0,0,1-2.25.28c-.21,0-.52-.75-.53-1.17-.05-2.12-.06-4.25,0-6.38,0-.36.45-.71.69-1.06s.62-.61.63-.93c.06-2,.07-4,0-5.95a1.24,1.24,0,0,0-.86-.85c-.87,0-1.05-.4-1-1.14,0-.47-.05-1,0-1.41.19-1.21-.34-1.52-1.49-1.5s-1,.72-1.11,1.49c0,.47-.3,1.28-.56,1.32-.92.15-1.66,0-1.75-1.34-.23-3.19-.68-6.36-1-9.54-.11-1.16-.77-1.26-1.73-1.27-1.16,0-1,.72-1,1.42,0,3.17,0,6.33,0,9.49,0,1-.3,1.34-1.28,1.26-1.31-.1-3.08.39-3.81-.29s-.33-2.46-.34-3.75c0-4.53,0-9.07,0-13.6a3.52,3.52,0,0,0-.81-2c-.88-1.1-1.93-2.06-2.87-3.12-.67-.75-1-.49-1.43.26a10.81,10.81,0,0,0-1,5.48c0,3,0,6,0,9.07a4.23,4.23,0,0,1-.32,1.1,4.42,4.42,0,0,1-.47-.9,6,6,0,0,1-.3-1.77c.05-1-.2-1.33-1.24-1.33s-1.22.5-1.19,1.39a4,4,0,0,1-.29,1.77c-1,2.07-.48,4.25-.53,6.38,0,1-.32,1.32-1.3,1.27-1.22-.07-2.46.06-3.68,0s-1.77.3-1.57,1.57a4.11,4.11,0,0,1-.06.94ZM176.21,36.19c0,.72,0,1.19,0,1.66,0,2.41,0,2.41-2.46,2.42-1.89,0-2,.2-1.1,1.87a5.06,5.06,0,0,0,.49.67c.91,1.15.79,1.72-.48,2.38a5.2,5.2,0,0,0-.71.42c-.39.29-.75.6-1.13.91a7.07,7.07,0,0,0,1.06.94c2.1,1.23,2.1,1.2.84,3.32a7.28,7.28,0,0,0-.49,1.38,8.6,8.6,0,0,0,1.33.22c2.64,0,2.64,0,2.65,2.65,0,1.62.15,1.73,1.65,1,.73-.37,1.56-1.3,2.08-1.14s1,1.29,1.42,2a4,4,0,0,0,.24.48c.26.3.62.84.82.8.37-.08.68-.51,1-.83a4.2,4.2,0,0,0,.46-.68L185,54.73c.65.42,1.29.87,2,1.24,1.58.84,1.77.7,1.77-1.09,0-2.48,0-2.46,2.53-2.49a9.41,9.41,0,0,0,1.46-.24,8,8,0,0,0-.59-1.48c-1-1.6-1.06-1.59.39-2.75,1.94-1.55,1.94-1.55-.27-2.72-1.22-.65-1.35-1.23-.53-2.31a7.73,7.73,0,0,0,.9-1.37c.33-.71.3-1.29-.76-1.25a10.27,10.27,0,0,1-2.26,0,1.28,1.28,0,0,1-.84-.86,30.14,30.14,0,0,1,0-3.19l-3.9,2.11c-.5-.9-1-1.86-1.58-2.78s-1.14-.79-1.63,0-1.07,1.89-1.56,2.76Zm0,73.52c0,.63,0,1.05,0,1.47,0,2.61,0,2.61-2.53,2.61-1.8,0-1.9.17-1,1.81a5.45,5.45,0,0,0,.55.79c.84,1.07.72,1.71-.44,2.33a6.7,6.7,0,0,0-.85.43c-.38.29-.73.63-1.09.95a12.77,12.77,0,0,0,1,.89c.66.49,1.62.81,1.93,1.46.18.37-.68,1.24-1.05,1.89-.09.16-.06.4-.17.53-.68.8-.34,1,.53,1.05s2.38-.33,2.84.18.33,1.93.3,2.94.44,1,1.13.84a4.39,4.39,0,0,0,1.09-.56c.5-.32,1-.67,1.47-1l.89,1.48c1.43,2.35,1.52,2.37,3.07.36.45-.58.8-1.25,1.2-1.88.66.42,1.3.87,2,1.24,1.56.83,1.76.7,1.75-1.11,0-2.48,0-2.46,2.54-2.49a9.29,9.29,0,0,0,1.45-.24,7.58,7.58,0,0,0-.51-1.37c-1.24-2-1.26-2,.73-3.24.15-.09.39-.05.53-.15.8-.51.84-1.08,0-1.61a11.31,11.31,0,0,0-1.11-.53c-1.45-.73-1.55-1.21-.57-2.45a5.83,5.83,0,0,0,.81-1.26c.3-.71.3-1.31-.76-1.26a10.55,10.55,0,0,1-2.26,0,1.27,1.27,0,0,1-.85-.84,30.5,30.5,0,0,1,0-3.21l-3.89,2.11c-.49-.88-1-1.88-1.6-2.82-.45-.71-1.07-.8-1.55,0-.61,1-1.12,2-1.63,2.87Zm23.32-48.88c0,.74,0,1.25,0,1.76,0,2.34,0,2.32-2.26,2.35a12.84,12.84,0,0,0-1.74.25c.19.64.36,1.29.59,1.92.07.2.34.32.49.5.78.92.48,1.64-.45,2.19-2.46,1.47-2.47,1.46-.15,3a.69.69,0,0,0,.24.13c1.36.25.75,1,.45,1.7-.09.2-.37.31-.47.51-.27.51-.48,1-.72,1.58.53.09,1.06.21,1.6.27a4.27,4.27,0,0,0,1.13,0c1.09-.17,1.37.29,1.32,1.33a16.18,16.18,0,0,0,.29,2.68c.84-.41,1.68-.83,2.53-1.23.56-.26,1.11-.68,1.46.36a9.73,9.73,0,0,0,1.21,2.14c.42.64,1,.77,1.45.07a9.62,9.62,0,0,0,1.09-1.88c.51-1.3,1.1-1.07,2-.38a9,9,0,0,0,2.21.89,18.82,18.82,0,0,0,.24-2c0-1.95,0-1.93,1.93-2,.68,0,1.37-.13,2.05-.2-.34-.67-.67-1.35-1-2s-1.1-1.42.38-1.92a8,8,0,0,0,2-1.56c-.69-.52-1.36-1.06-2.07-1.55-.9-.62-1.18-1.29-.36-2.21a6.12,6.12,0,0,0,.92-1.37c.4-.81.29-1.36-.82-1.29-.66,0-1.33-.05-2,0-.92.1-1.14-.3-1.08-1.14s0-1.85,0-3l-3.89,2.08c-.48-.86-1-1.82-1.56-2.74s-1.11-.86-1.63,0-1.12,1.93-1.61,2.78Zm-41,18.07c.63.4,1.3.89,2,1.27,1.59.84,1.76.72,1.76-1.09,0-2.5,0-2.49,2.38-2.51a12.4,12.4,0,0,0,1.61-.22c-.25-.56-.5-1.13-.77-1.69-.06-.12-.22-.19-.28-.31-.4-.74-1.11-1.5.41-1.89a5.24,5.24,0,0,0,1.5-1c.78-.55.62-1.08-.09-1.53-.35-.22-.75-.36-1.12-.55-1.42-.71-1.52-1.19-.55-2.44a6,6,0,0,0,.8-1.26c.31-.72.3-1.31-.77-1.25-.75,0-1.51,0-2.27,0s-.92-.22-.89-.9c0-1,0-2,0-3.1-.81.38-1.46.63-2.05,1s-1.23.78-1.76,1.12c-.6-1-1.18-2-1.82-3-.44-.68-1-.48-1.36.07-.63,1-1.17,2-1.73,3-.59-.38-1.14-.78-1.74-1.11s-1.31-.61-2-.95c0,.3,0,.53,0,.75,0,1,.35,2.37-.16,2.86s-1.92.36-2.92.34-1.13.48-.87,1.22a4.31,4.31,0,0,0,.7,1.16c1.21,1.56,1.17,1.74-.6,2.63-1.94,1-2,1.18-.23,2.4.27.19.46.55.75.62,1.55.38.74,1.18.36,1.88-.13.24-.46.38-.56.62a11.72,11.72,0,0,0-.43,1.4c.45.07.89.15,1.34.19a5,5,0,0,0,1.13,0c1.14-.17,1.62.2,1.51,1.43a13.74,13.74,0,0,0,.23,2.56c.85-.39,1.72-.75,2.54-1.18s1.18-.57,1.56.4a10.87,10.87,0,0,0,1.2,2.13c.38.56.93.72,1.36.05C157.32,81,157.89,80,158.53,78.9Z" transform="translate(-18.73 -23.56)"/><path class="c" d="M43.57,221.11c-2.53-.71-4-2.64-5.59-4.42a50.43,50.43,0,0,1-3.61-4.31A42.55,42.55,0,0,1,31.05,207c-.79-1.57-.22-2.27,1.52-2.27H218.5c1.55,0,1.45,0,.77,1.4a36.81,36.81,0,0,1-6.43,9c-2,2.19-4.17,4.23-6.29,6.31-.56.55-1.08,1-1.27-.41-.29-2.09-.58-2.13-2.78-2.23a11.43,11.43,0,0,1-3.34-.74c-2.09-.77-4-.92-5.81.71a5.89,5.89,0,0,1-4.19,1.4c-2.83,0-5.59.09-8.08-1.8a3.85,3.85,0,0,0-4.65.16c-2.3,1.66-4.65,1.68-7.25.89-1.6-.49-3.15-1.05-4.7-1.64a9.67,9.67,0,0,0-5.42-.12,20.17,20.17,0,0,1-11.41-.48,8.66,8.66,0,0,0-6.51.37c-4.71,2.25-9.29,1.52-13.94-.22a7.53,7.53,0,0,0-3.68-.24c-2.41.39-4.77,1.08-7.16,1.6-3.11.68-6.08-.32-8.84-1.35-2.54-.94-4.8-.46-7,.26a17.52,17.52,0,0,1-11.36-.33,8,8,0,0,0-6.06.05,4.52,4.52,0,0,1-2.21.35c-3-.33-6.1.11-9.1-.9a8.13,8.13,0,0,0-3.91,0c-2.73.52-5.4,1.39-8.2.46a1.86,1.86,0,0,0-1,.07,3.65,3.65,0,0,1-3.44-.78c-1.77-1.49-3.57-1.28-5.51-.29a20.47,20.47,0,0,1-4,1.48c-1.9.52-2.2.8-2.16,2.81C43.61,220.7,43.59,220.87,43.57,221.11Z" transform="translate(-18.73 -23.56)"/><path class="c" d="M152.47,250.67H120.06c-3.92,0-7.83,0-11.75,0-2.87,0-5.74.17-8.61.17-1.46,0-2.91-.23-4.37-.27a4,4,0,0,0-1.79.31c-.49.24-1.09.73-1.17,1.19s.39,1,.68,1.54.57.81.86,1.22c-.57.1-1.26.44-1.71.25-2.39-1-4.72-2.23-7.08-3.37-.71-.34-1.42-.66-2.14-1a10.07,10.07,0,0,1-1.16-.5c-2.1-1.28-4.15-2.64-6.28-3.86-2.29-1.32-4.77-2.35-6.94-3.83-1.91-1.32-4.32-2.14-5.38-4.52-.32-.72-.47-1.1.56-1.13,5.92-.2,11.26-2.39,16.54-4.8a2.12,2.12,0,0,1,2.56.32,17.26,17.26,0,0,0,8.21,3.7c1.85.32,3.74.46,5.61.61a18.74,18.74,0,0,0,11-2.85c1.66-1,3-.54,4.46.36,4.71,2.87,9.76,4.35,15.33,3.45,1.91-.31,3.81-.63,5.72-.93a11.38,11.38,0,0,0,5.66-2.36c1.94-1.57,3.53-1.51,5.3.16,2,1.93,4.74,1.84,7.18,2.59,4.79,1.47,9.42.27,14-.85a12.08,12.08,0,0,0,3.09-1.37,4.91,4.91,0,0,1,5.72.11,9.79,9.79,0,0,0,5.66,1.84,14.63,14.63,0,0,1,2.94.36,2.67,2.67,0,0,1,1.66,1.07c.15.32-.46,1.2-.93,1.59-1.1.92-2.31,1.72-3.5,2.53s-2.4,1.61-3.64,2.36a11.46,11.46,0,0,1-1.65.71c-.13.05-.29,0-.4.1l-6.26,3.73c-.2.12-.34.34-.55.44-2.14,1.1-4.27,2.25-6.45,3.26a50,50,0,0,1-5,1.95,4.73,4.73,0,0,1-1.66-.07,6.86,6.86,0,0,1,.86-1.28c1.08-1,.94-2.2-.47-2.74a14.78,14.78,0,0,0-2.33-.51Z" transform="translate(-18.73 -23.56)"/><path class="a" d="M68.38,291.14c0,1.3,0,2.48,0,3.65a6.3,6.3,0,0,1-.28,1.22c-.5-.36-1.23-.63-1.43-1.12a5.55,5.55,0,0,1-.26-2.37c.14-2.49.34-5,.58-7.47,0-.36.4-.69.61-1,.4.45,1.12.88,1.15,1.34.06,1.16-.27,2.34-.3,3.51a1.59,1.59,0,0,0,.64,1.22c1.35.75,2.8,1.34,4.18,2.05,1,.52,1.2.11,1.18-.83a14.93,14.93,0,0,1,.13-2.54,3.53,3.53,0,0,1,.59-1.07c.41.42,1,.78,1.17,1.27a8.4,8.4,0,0,1,0,2.11c0,2.4.1,4.81.11,7.21a3.55,3.55,0,0,1-.39,1.1c-.45-.33-1.2-.6-1.3-1-.27-1.14-.19-2.35-.39-3.51a2,2,0,0,0-.81-1.27C71.89,292.73,70.21,292,68.38,291.14Z" transform="translate(-18.73 -23.56)"/><path class="a" d="M182.76,292.47c-.19,1.4-.26,2.45-.5,3.45a2.63,2.63,0,0,1-.83,1.19c-.2.18-.6.15-.92.21a5,5,0,0,1-.06-.82c.09-1.13.21-2.25.32-3.38.07-.71-.25-.79-.84-.54-1.51.65-3.06,1.23-4.55,1.93a1.57,1.57,0,0,0-.63,1c-.22,1.11-.28,2.25-.5,3.35a2.07,2.07,0,0,1-.69,1.15c-.28.22-.78.16-1.18.22,0-.31.08-.62.08-.93.05-3,.08-5.92.17-8.87a2,2,0,0,1,.52-1.38c.59-.48,1.13-.34,1.21.59a21,21,0,0,0,.36,2.81c.06.26.66.66.85.59,1.54-.58,3.06-1.22,4.54-1.94a1.27,1.27,0,0,0,.41-1c-.07-1-.37-2.06-.36-3.09,0-.43.57-.85.88-1.28.31.31.82.58.88.92C182.3,288.7,182.54,290.76,182.76,292.47Z" transform="translate(-18.73 -23.56)"/><path class="a" d="M168,292.55a6.61,6.61,0,0,0-7.38,6.92c0,1.94,1.08,2.87,3,2.6a9.31,9.31,0,0,0,2.17-.62,3.24,3.24,0,0,0,1.88-3.66c0-.17-.49-.37-.7-.33-.6.11-1.16.39-1.76.52a2.14,2.14,0,0,1-.81-.17c.12-.28.18-.74.38-.82,1.37-.52,2.76-1,4.16-1.37.13,0,.59.43.58.64-.12,1.36-.31,2.71-.53,4.06a1.15,1.15,0,0,1-.44.7c-2.27,1.52-4.7,2.64-7.52,2.34a2.45,2.45,0,0,1-2.25-2.51,9.17,9.17,0,0,1,9.61-9.86c.34,0,.66.57,1,.88Z" transform="translate(-18.73 -23.56)"/><path class="a" d="M123.65,302.85c.38.23.77.34.91.59.41.69,1.08,1.49,1,2.14a2.57,2.57,0,0,1-1.64,1.63,13,13,0,0,1-3.9.26c-2.94-.17-2.93-.23-2.9-3.13,0-1.88,0-3.77,0-5.65,0-.94.32-1.26,1.26-1.13a35.06,35.06,0,0,1,4.19.49C125.15,298.74,125.65,300.9,123.65,302.85Zm-5,2.19c.22.49.38,1.36.66,1.4a13.85,13.85,0,0,0,3.47,0,1.42,1.42,0,0,0,1-1,1.68,1.68,0,0,0-.65-1.37,11.59,11.59,0,0,0-2.54-.68C119.28,303.16,118.47,303.4,118.63,305Zm.22-4.66c0,1.88,0,1.89,2.14,1.91,1.05,0,2-.15,2.14-1.47s-1-1.75-3.38-1.88C118.28,298.84,119.08,299.91,118.85,300.37Z" transform="translate(-18.73 -23.56)"/><path class="a" d="M151.52,298.39a23.26,23.26,0,0,1-1.92,2.41c-.45.44-.63.5-.12,1.11a11,11,0,0,1,1.49,2.84c.08.19-.3.8-.53.84a1.55,1.55,0,0,1-1.26-.29,6.6,6.6,0,0,1-.76-1.81,1.9,1.9,0,0,0-2.12-1.26c-1,0-1.59.36-1.63,1.48a5.59,5.59,0,0,1-.4,2.2c-.2.41-.89.58-1.36.87a4.92,4.92,0,0,1-.22-1.19c.14-2.35.43-4.7.46-7,0-1.31.25-2,1.72-2.09s2.79-.46,4.19-.44S151.2,296.93,151.52,298.39Zm-6.69,1.13c.16.59.15,1.49.5,1.68.85.44,3.23-.65,3.72-1.54s.59-1.87-.42-2.13a6.87,6.87,0,0,0-3.28.22C145.05,297.83,145,298.87,144.82,299.52Z" transform="translate(-18.73 -23.56)"/><path class="a" d="M61.79,293.13A10.37,10.37,0,0,1,56,289.89c-.23-.24-.16-.77-.23-1.16a9,9,0,0,1,1,.5c1.17.76,2.29,1.62,3.52,2.28a1.58,1.58,0,0,0,1.5-.23,1.73,1.73,0,0,0,.15-1.55,8.4,8.4,0,0,0-1.48-2c-.76-.83-1.62-1.58-2.41-2.39a4.42,4.42,0,0,1-.67-.9c-.83-1.46-.8-3.25,0-4.12s2.23-.83,3.82.12a13,13,0,0,1,2.49,2c.24.24.1.86.13,1.3a8.23,8.23,0,0,1-1-.51,21.14,21.14,0,0,0-2.4-1.68,1.63,1.63,0,0,0-1.51.19,1.7,1.7,0,0,0-.27,1.53,8.39,8.39,0,0,0,1.46,2.21,30.23,30.23,0,0,1,2.55,2.63A7.85,7.85,0,0,1,64,291.3C64.17,292.6,63.42,293.16,61.79,293.13Z" transform="translate(-18.73 -23.56)"/><path class="a" d="M81.48,293.48c-.38,1.22.24,1.83,1.55,2.1a11,11,0,0,1,2.52.91c.3.14.44.59.66.91a2.86,2.86,0,0,1-1,.08c-1-.28-2-.62-3-1-.6-.21-.89-.09-.82.61a19.1,19.1,0,0,0,.23,2.25,1.48,1.48,0,0,0,.77.93c1.32.49,2.69.83,4,1.32.35.13.59.57.89.87a4.17,4.17,0,0,1-1.14,0c-1.77-.49-3.54-1-5.26-1.59a1.81,1.81,0,0,1-1-1.28c-.14-3.06-.16-6.12-.22-9.18,0-.82.37-1,1.08-.72,1.81.66,3.65,1.27,5.44,2,.32.13.49.65.73,1a3.33,3.33,0,0,1-1.15.11,19.87,19.87,0,0,1-2.94-1c-1.1-.5-1.58-.3-1.43,1C81.5,292.95,81.48,293.14,81.48,293.48Z" transform="translate(-18.73 -23.56)"/><path class="a" d="M131.71,307.47c-3.39.24-3.37.24-3.25-3.16.07-1.79.09-3.58.08-5.38,0-.76.25-1.15,1-1.19,1.74-.1,3.48-.25,5.23-.31.31,0,.64.32,1,.5-.31.26-.6.7-.94.75a17.33,17.33,0,0,1-3,.16c-1.1,0-1.6.3-1.56,1.52.07,1.88,0,1.88,1.83,1.84.71,0,1.42-.09,2.12,0,.24,0,.47.29.71.44-.2.21-.39.58-.61.61a13.52,13.52,0,0,1-2.54.12c-1.17-.08-1.69.27-1.66,1.56,0,1.8-.05,1.8,1.71,1.68.89-.06,1.79-.12,2.69-.11.25,0,.49.25.74.38a2.47,2.47,0,0,1-.75.47,10.07,10.07,0,0,1-1.41.06Z" transform="translate(-18.73 -23.56)"/><path class="a" d="M188.77,293.78l-.94-8.6c-.11-1-.44-1.38-1.42-.7a6.57,6.57,0,0,1-1.79.81,3,3,0,0,1-1.06-.08c.19-.32.3-.79.58-.94,2.05-1.05,4.13-2,6.21-3a4.91,4.91,0,0,1,1.14-.53,3.08,3.08,0,0,1,1.06.18c-.16.29-.25.69-.5.84-.64.39-1.4.59-2,1a1.69,1.69,0,0,0-.57,1.27c.23,2.62.63,5.22.81,7.84C190.39,293.29,190,293.52,188.77,293.78Z" transform="translate(-18.73 -23.56)"/><path class="a" d="M103.88,301.29c0-1.67-.05-2.9,0-4.12,0-.37.42-.72.65-1.09.38.37,1.07.73,1.09,1.13a65.7,65.7,0,0,1,.12,6.79c-.06,1.32.51,1.75,1.65,1.83.89.07,1.79.12,2.68.25.27,0,.5.31.75.47-.26.13-.54.39-.78.36-1.68-.19-3.37-.37-5-.71a1.57,1.57,0,0,1-.9-1.12C104,303.69,103.93,302.27,103.88,301.29Z" transform="translate(-18.73 -23.56)"/><path class="a" d="M96.83,299.15c.07,1.32.06,2.65.24,3.95a1.58,1.58,0,0,0,.95,1.06c1.13.32,2.31.42,3.46.67.26.06.46.37.69.57-.26.09-.54.3-.79.27-1.68-.25-3.36-.47-5-.87a1.68,1.68,0,0,1-1-1.2c-.17-2.77-.24-5.55-.28-8.33,0-.33.4-.67.61-1,.39.36,1.07.69,1.12,1.09a33,33,0,0,1,.05,3.81Z" transform="translate(-18.73 -23.56)"/><path class="a" d="M156.59,297.72c-.26,2-.52,3.91-.8,5.86-.05.36-.12.84-.37,1a3.93,3.93,0,0,1-1.29.4,5.75,5.75,0,0,1-.09-1c.19-2.81.43-5.61.57-8.42,0-.72.13-1.17.91-1.28.94-.13.8.56.84,1.1.06.75.07,1.5.11,2.25Z" transform="translate(-18.73 -23.56)"/><path class="a" d="M92.66,293.45c-1.07,1.16-1.88,2.09-2.77,2.93-.14.13-.67-.14-1-.23a6.74,6.74,0,0,1,.21-.74c.36-.88.7-1.79,1.14-2.63.14-.26.67-.57.88-.49A7.9,7.9,0,0,1,92.66,293.45Z" transform="translate(-18.73 -23.56)"/><path class="a" d="M176.21,36.19l3.89,2.08c.49-.87,1-1.84,1.56-2.76s1.12-.83,1.63,0,1.07,1.88,1.58,2.78l3.9-2.11a30.14,30.14,0,0,0,0,3.19,1.28,1.28,0,0,0,.84.86,10.27,10.27,0,0,0,2.26,0c1.05,0,1.08.53.76,1.25a7.73,7.73,0,0,1-.9,1.37c-.82,1.08-.69,1.67.53,2.31,2.21,1.17,2.21,1.17.27,2.72-1.45,1.16-1.43,1.14-.39,2.75a8,8,0,0,1,.59,1.48,9.41,9.41,0,0,1-1.46.24c-2.53,0-2.53,0-2.53,2.49,0,1.8-.19,1.93-1.77,1.09-.68-.36-1.31-.82-2-1.24l-1.18,1.89a4.2,4.2,0,0,1-.46.68c-.3.32-.61.74-1,.83-.21,0-.56-.5-.82-.8a4,4,0,0,1-.24-.48c-.45-.71-.8-1.8-1.42-2s-1.35.76-2.08,1.14c-1.49.76-1.64.66-1.65-1,0-2.62,0-2.61-2.65-2.65a8.6,8.6,0,0,1-1.33-.22,7.28,7.28,0,0,1,.49-1.38c1.26-2.11,1.27-2.09-.84-3.32a7.07,7.07,0,0,1-1.06-.94c.37-.3.74-.62,1.13-.91a5.2,5.2,0,0,1,.71-.42c1.27-.66,1.38-1.23.48-2.38a5.06,5.06,0,0,1-.49-.67c-.91-1.67-.79-1.87,1.1-1.87,2.46,0,2.46,0,2.46-2.42C176.21,37.38,176.21,36.91,176.21,36.19Zm6.46,14.46c1.16-.08,2.87.29,3.63-.4s.23-2.38.23-3.65.35-2.76-.25-3.37-2.2-.28-3.37-.27-3-.36-3.77.32-.22,2.39-.22,3.65-.36,2.75.24,3.37S181.36,50.57,182.66,50.65Z" transform="translate(-18.73 -23.56)"/><path class="a" d="M176.21,109.71l3.89,2.12c.51-.91,1-1.92,1.63-2.87.48-.76,1.11-.66,1.55,0,.6.94,1.1,1.94,1.6,2.82l3.89-2.11a30.5,30.5,0,0,0,0,3.21,1.27,1.27,0,0,0,.85.84,10.55,10.55,0,0,0,2.26,0c1.06,0,1.06.55.76,1.26a5.83,5.83,0,0,1-.81,1.26c-1,1.24-.87,1.71.57,2.45a11.31,11.31,0,0,1,1.11.53c.81.53.77,1.1,0,1.61-.15.1-.38.06-.53.15-2,1.2-2,1.2-.73,3.24a7.58,7.58,0,0,1,.51,1.37,9.29,9.29,0,0,1-1.45.24c-2.54,0-2.55,0-2.54,2.49,0,1.81-.19,1.94-1.75,1.11-.69-.37-1.32-.82-2-1.24-.4.63-.74,1.3-1.2,1.88-1.55,2-1.64,2-3.07-.36l-.89-1.48c-.49.34-1,.69-1.47,1a4.39,4.39,0,0,1-1.09.56c-.69.2-1.16.11-1.13-.84s.24-2.35-.3-2.94-1.86-.17-2.84-.18-1.21-.25-.53-1.05c.11-.13.08-.37.17-.53.37-.65,1.23-1.52,1.05-1.89-.31-.64-1.27-1-1.93-1.46a12.77,12.77,0,0,1-1-.89c.36-.32.7-.66,1.09-.95a6.7,6.7,0,0,1,.85-.43c1.16-.63,1.27-1.26.44-2.33a5.45,5.45,0,0,1-.55-.79c-.86-1.63-.75-1.8,1-1.81,2.54,0,2.54,0,2.53-2.61C176.21,110.76,176.21,110.34,176.21,109.71Zm10.38,10.71c-.06-1.3.34-3-.29-3.59s-2.38-.3-3.64-.31-2.88-.36-3.5.27-.24,2.3-.25,3.51-.41,3,.21,3.52,2.39.3,3.64.3,2.87.36,3.5-.28S186.53,121.54,186.59,120.42Z" transform="translate(-18.73 -23.56)"/><path class="a" d="M199.53,60.83l3.88,2.1c.49-.85,1-1.84,1.61-2.78s1.14-.75,1.63,0,1.08,1.89,1.56,2.74l3.89-2.08c0,1.11,0,2,0,3s.16,1.24,1.08,1.14c.65-.07,1.32,0,2,0,1.1-.07,1.21.48.82,1.29a6.12,6.12,0,0,1-.92,1.37c-.82.92-.54,1.59.36,2.21.71.49,1.38,1,2.07,1.55a8,8,0,0,1-2,1.56c-1.48.49-.77,1.18-.38,1.92s.68,1.34,1,2c-.68.07-1.37.19-2.05.2-1.91,0-1.89,0-1.93,2a18.82,18.82,0,0,1-.24,2,9,9,0,0,1-2.21-.89c-.92-.69-1.52-.91-2,.38a9.62,9.62,0,0,1-1.09,1.88c-.48.7-1,.57-1.45-.07a9.73,9.73,0,0,1-1.21-2.14c-.35-1-.9-.62-1.46-.36-.85.4-1.69.82-2.53,1.23a16.18,16.18,0,0,1-.29-2.68c.05-1-.23-1.51-1.32-1.33a4.27,4.27,0,0,1-1.13,0c-.54-.06-1.06-.18-1.6-.27.24-.53.45-1.07.72-1.58.1-.2.38-.31.47-.51.3-.67.91-1.46-.45-1.7a.69.69,0,0,1-.24-.13c-2.32-1.58-2.31-1.57.15-3,.93-.55,1.23-1.27.45-2.19-.15-.18-.41-.3-.49-.5-.23-.63-.4-1.28-.59-1.92a12.84,12.84,0,0,1,1.74-.25c2.27,0,2.27,0,2.26-2.35C199.53,62.08,199.53,61.57,199.53,60.83Zm6.53,6.72c-1.24.06-3-.33-3.54.31s-.29,2.38-.29,3.63-.36,2.89.27,3.49,2.31.24,3.52.24,3,.4,3.51-.22.29-2.39.3-3.64.35-2.87-.28-3.48S207.25,67.62,206.06,67.55Z" transform="translate(-18.73 -23.56)"/><path class="a" d="M158.53,78.9c-.64,1.07-1.21,2.1-1.85,3.08-.43.66-1,.51-1.36-.05a10.87,10.87,0,0,1-1.2-2.13c-.37-1-.88-.76-1.56-.4s-1.69.79-2.54,1.18a13.74,13.74,0,0,1-.23-2.56c.11-1.24-.37-1.6-1.51-1.43a5,5,0,0,1-1.13,0c-.45,0-.89-.13-1.34-.19a11.72,11.72,0,0,1,.43-1.4c.11-.24.43-.38.56-.62.38-.7,1.19-1.5-.36-1.88-.28-.07-.48-.43-.75-.62-1.73-1.22-1.71-1.43.23-2.4,1.78-.89,1.81-1.07.6-2.63a4.31,4.31,0,0,1-.7-1.16c-.26-.74-.17-1.25.87-1.22s2.36.21,2.92-.34.14-1.87.16-2.86c0-.22,0-.45,0-.75.74.34,1.41.6,2,.95s1.16.73,1.74,1.11c.55-1,1.1-2,1.73-3,.36-.55.91-.75,1.36-.07.64,1,1.22,2,1.82,3,.53-.34,1.13-.76,1.76-1.12s1.24-.58,2.05-1c0,1.09,0,2.09,0,3.1,0,.68.21.94.89.9s1.51,0,2.27,0c1.06-.05,1.07.54.77,1.25a6,6,0,0,1-.8,1.26c-1,1.25-.87,1.73.55,2.44.37.19.77.32,1.12.55.71.45.86,1,.09,1.53a5.24,5.24,0,0,1-1.5,1c-1.52.39-.81,1.15-.41,1.89.06.12.22.19.28.31.27.56.51,1.13.77,1.69a12.4,12.4,0,0,1-1.61.22c-2.39,0-2.39,0-2.38,2.51,0,1.81-.17,1.93-1.76,1.09C159.82,79.79,159.16,79.3,158.53,78.9Zm-6.16-8c.08,1.29-.3,3,.37,3.66s2.39.26,3.65.26,2.84.38,3.37-.22.3-2.29.3-3.5.38-3-.27-3.63-2.39-.25-3.64-.25-2.84-.39-3.39.21S152.45,69.69,152.36,70.87Z" transform="translate(-18.73 -23.56)"/><path class="b" d="M118.63,305c-.17-1.64.65-1.88,1.91-1.59a11.59,11.59,0,0,1,2.54.68,1.68,1.68,0,0,1,.65,1.37,1.42,1.42,0,0,1-1,1,13.85,13.85,0,0,1-3.47,0C119,306.39,118.85,305.52,118.63,305Z" transform="translate(-18.73 -23.56)"/><path class="b" d="M118.85,300.37c.23-.46-.57-1.53.91-1.45,2.39.14,3.48.65,3.38,1.88s-1.09,1.48-2.14,1.47C118.83,302.26,118.83,302.26,118.85,300.37Z" transform="translate(-18.73 -23.56)"/><path class="b" d="M144.82,299.52c.18-.66.23-1.69.53-1.77a6.87,6.87,0,0,1,3.28-.22c1,.26.88,1.31.42,2.13s-2.87,2-3.72,1.54C145,301,145,300.11,144.82,299.52Z" transform="translate(-18.73 -23.56)"/><path class="b" d="M182.66,50.65c-1.31-.08-2.91.27-3.5-.34s-.24-2.21-.24-3.37-.43-3.08.22-3.65,2.47-.31,3.77-.32,2.76-.34,3.37.27.25,2.2.25,3.37.42,3.06-.23,3.65S183.82,50.57,182.66,50.65Z" transform="translate(-18.73 -23.56)"/><path class="b" d="M186.59,120.42c-.06,1.12.32,2.78-.32,3.42s-2.29.28-3.5.28-2.9.34-3.64-.3-.21-2.3-.21-3.52-.38-2.87.25-3.51,2.29-.27,3.5-.27,2.89-.34,3.64.31S186.53,119.11,186.59,120.42Z" transform="translate(-18.73 -23.56)"/><path class="b" d="M206.06,67.55c1.19.06,2.84-.32,3.49.32s.28,2.28.28,3.48.35,2.9-.3,3.64-2.3.22-3.51.22-2.87.39-3.52-.24-.28-2.29-.27-3.49-.35-2.89.29-3.63S204.82,67.62,206.06,67.55Z" transform="translate(-18.73 -23.56)"/><path class="b" d="M152.36,70.87c.08-1.18-.26-2.77.38-3.48s2.22-.21,3.39-.21,3-.4,3.64.25.28,2.38.27,3.63.32,2.78-.3,3.5-2.2.23-3.37.22-3,.39-3.65-.26S152.44,72.16,152.36,70.87Z" transform="translate(-18.73 -23.56)"/></svg>